<?xml version="1.0" encoding="utf-8"?>
<!-- Generator: Adobe Illustrator 23.1.0, SVG Export Plug-In . SVG Version: 6.00 Build 0)  -->
<svg version="1.1" id="Layer_1" xmlns="http://www.w3.org/2000/svg" xmlns:xlink="http://www.w3.org/1999/xlink" x="0px" y="0px"
	 viewBox="0 0 50 34" style="enable-background:new 0 0 50 34;" xml:space="preserve">
<style type="text/css">
	.st0{fill-rule:evenodd;clip-rule:evenodd;fill:#EE4350;}
</style>
<path class="st0" d="M20.8,3.2L20.8,3.2c0.8,1.3,1.1,3.1,0.9,5.2v1.7c0,8.6-2.6,15.6-7.9,21.2c-1.2,1.2-3,1.8-3.9,2.1
	c-0.3,0.1-0.8,0.2-1.3,0.2c-1.4,0-3.1-0.5-4.1-1.4c-0.8-0.7-1.2-1.6-1-2.6C3.9,28.2,5.4,27,6.8,26c0.7-0.5,1.4-1,1.8-1.5
	c1.4-1.6,2.2-3.4,2.4-5.7c-0.4-0.1-0.7-0.2-0.8-0.2c0,0-1.1,0.3-1.6,0.3L8.1,19c-2.8,0.3-6,0.6-7.4-2.8C0,14.5,0,12.9,0.1,11.4
	c0-0.5,0-0.9,0.1-1.4c0-0.8,0-1.7-0.1-2.5C0,6-0.1,4.5,0.2,2.9c0-0.7,0.3-1.3,0.7-1.7C2.3-0.2,5.5,0,7.5,0.1c0.5,0,0.9,0,1.2,0
	c2.5,0,4.5,0.1,7.3,0.4C18.2,0.8,19.8,1.7,20.8,3.2z M49,3.2L49,3.2c0.8,1.3,1.1,3.1,0.9,5.2v1.7c0,8.6-2.6,15.6-7.9,21.2
	c-1.2,1.2-3,1.8-3.9,2.1c-0.3,0.1-0.8,0.2-1.3,0.2c-1.4,0-3.1-0.5-4.1-1.4c-0.8-0.7-1.2-1.6-1-2.6c0.3-1.5,1.9-2.7,3.3-3.7
	c0.7-0.5,1.4-1,1.8-1.5c1.4-1.6,2.2-3.4,2.4-5.7c-0.4-0.1-0.7-0.2-0.8-0.2c0,0-1.1,0.3-1.6,0.3L36.3,19c-2.8,0.3-6,0.6-7.4-2.8
	c-0.7-1.6-0.6-3.2-0.5-4.8c0-0.5,0-0.9,0.1-1.4c0-0.8,0-1.7-0.1-2.5c-0.1-1.5-0.2-3,0.1-4.6c0-0.7,0.3-1.3,0.7-1.7
	c1.4-1.4,4.6-1.2,6.6-1.1c0.5,0,0.9,0,1.2,0c2.5,0,4.5,0.1,7.3,0.4C46.4,0.8,48.1,1.7,49,3.2z"/>
</svg>
