<?xml version="1.0" encoding="utf-8"?>
<!-- Generator: Adobe Illustrator 23.1.0, SVG Export Plug-In . SVG Version: 6.00 Build 0)  -->
<svg version="1.1" id="Layer_1" xmlns="http://www.w3.org/2000/svg" xmlns:xlink="http://www.w3.org/1999/xlink" x="0px" y="0px"
	 viewBox="0 0 130 126" style="enable-background:new 0 0 130 126;" xml:space="preserve">
<style type="text/css">
	.st0{fill:#FFFFFF;}
	.st1{fill:#393E42;}
	.st2{fill:#A3B9BC;}
	.st3{fill:#181B20;}
	.st4{fill:#768F91;}
	.st5{fill:#24272B;}
	.st6{fill:#C88F76;}
	.st7{fill:#FBC2AB;}
	.st8{fill:#636FAD;}
	.st9{fill:#3A3436;}
	.st10{fill:#EA663A;}
</style>
<g>
	<g>
		<path class="st0" d="M78.8,78.6c0,0-5.8-4.1-13.6-7.6C58,67.7,54.3,66.5,51,68.5c-5.5,3.4-8.6,6.4,2,10.1
			c10.6,3.7,25.3,4.8,25.3,4.8L78.8,78.6z"/>
		<path class="st1" d="M40.8,94.4c1.6-3.6,3.5-8.4,3.5-8.4l7.4,23.1c0,0-2.7-1.1-8.1-3.6C38.1,103.1,39.2,97.9,40.8,94.4z"/>
		<path class="st1" d="M45.4,71.8c0,0,5,1.4,8,2.1c3,0.8,15.1,3.3,17.5,4c2.4,0.7,9.2,3.5,10.3,4.2c1.1,0.6,7.6,15.6,7.6,15.6
			s-2.7,7.6-6.2,12.2c-4,5.2-13.1,0.9-13.1,0.9H51.6L40.8,77.4L45.4,71.8z"/>
		<g>
			<g>
				<rect x="15.9" y="97.6" class="st2" width="0.8" height="22.5"/>
			</g>
			<g>
				<path class="st3" d="M16.3,91.7c9,0,16.3,7.7,16.3,17.1c0,9.5-7.3,17.1-16.3,17.1c-9,0-16.3-7.7-16.3-17.1
					C0,99.4,7.3,91.7,16.3,91.7z M16.3,120.1c5.9,0,10.7-5,10.7-11.2c0-6.2-4.8-11.2-10.7-11.2c-5.9,0-10.7,5-10.7,11.2
					C5.6,115.1,10.4,120.1,16.3,120.1z"/>
			</g>
			<g>
				<polygon class="st2" points="23.7,117.4 24.4,116.7 8.8,100.4 8.2,101.1 				"/>
			</g>
			<g>
				<polygon class="st2" points="8.8,117.4 24.4,101.1 23.7,100.4 8.2,116.7 				"/>
			</g>
			<g>
				<rect x="5.3" y="108.4" class="st2" width="22" height="1"/>
			</g>
			<ellipse class="st4" cx="16.3" cy="108.9" rx="6.7" ry="7.1"/>
			<g>
				<path class="st0" d="M16.3,121.4c6.6,0,11.9-5.6,11.9-12.5c0-6.9-5.3-12.5-11.9-12.5c-6.6,0-11.9,5.6-11.9,12.5
					C4.4,115.8,9.7,121.4,16.3,121.4z M16.3,98.3c5.5,0,10.1,4.7,10.1,10.6c0,5.8-4.5,10.6-10.1,10.6c-5.5,0-10.1-4.7-10.1-10.6
					C6.2,103,10.7,98.3,16.3,98.3z"/>
			</g>
			<path class="st5" d="M35.3,115.9c0,0-4.8,0-5.3-2.7c-0.5-2.7,0.6-12.5-8.7-17c-5.7-2.7-16.5-2.1-16.5-2.1s4.8-6.8,15.6-5
				c8.4,1.4,13.7,8.1,14.8,15.8C35.9,109.1,35.3,115.9,35.3,115.9z"/>
		</g>
		<g>
			<g>
				<rect x="106.5" y="97.6" class="st2" width="0.8" height="22.5"/>
			</g>
			<g>
				<path class="st3" d="M106.9,91.7c9,0,16.3,7.7,16.3,17.1c0,9.5-7.3,17.1-16.3,17.1c-9,0-16.3-7.7-16.3-17.1
					C90.6,99.4,97.9,91.7,106.9,91.7z M106.9,120.1c5.9,0,10.7-5,10.7-11.2c0-6.2-4.8-11.2-10.7-11.2c-5.9,0-10.7,5-10.7,11.2
					C96.2,115.1,101,120.1,106.9,120.1z"/>
			</g>
			<g>
				<polygon class="st2" points="114.3,117.4 115,116.7 99.4,100.4 98.8,101.1 				"/>
			</g>
			<g>
				<polygon class="st2" points="99.4,117.4 115,101.1 114.3,100.4 98.8,116.7 				"/>
			</g>
			<g>
				<rect x="95.9" y="108.4" class="st2" width="22" height="1"/>
			</g>
			<ellipse class="st4" cx="106.9" cy="108.9" rx="6.7" ry="7.1"/>
			<g>
				<path class="st0" d="M106.9,121.4c6.6,0,11.9-5.6,11.9-12.5c0-6.9-5.3-12.5-11.9-12.5c-6.6,0-11.9,5.6-11.9,12.5
					C94.9,115.8,100.3,121.4,106.9,121.4z M106.9,98.3c5.5,0,10.1,4.7,10.1,10.6c0,5.8-4.5,10.6-10.1,10.6
					c-5.5,0-10.1-4.7-10.1-10.6C96.8,103,101.3,98.3,106.9,98.3z"/>
			</g>
		</g>
		<path class="st0" d="M48.5,59.7V46.1c0,0-7.4,3.9-6.9,13.8S48.5,59.7,48.5,59.7z"/>
		<path class="st5" d="M98.7,88.9l4.5,21c0,0-5.2,0-8.7,0c-1.2,0-3.9,0-5-2.7c-1.9-4.8-6.6-15.6-7.9-18.4H98.7z"/>
		<polygon class="st3" points="50.9,114.2 54.4,114.5 43.3,78.6 40.2,79.6 		"/>
		<path class="st0" d="M14.2,110.9l0.9,0.7c0.5,0.4,1.2,0.3,1.5-0.2l36.8-47.7c0.4-0.5,0.3-1.2-0.2-1.6l-0.9-0.7
			c-0.5-0.4-1.2-0.3-1.5,0.2l-36.8,47.7C13.7,109.8,13.8,110.5,14.2,110.9z"/>
		<path class="st5" d="M47.6,55.8c1.5-0.7,2.1,0.5,2.3,3c0.2,1.8,0.2,3.4,0.1,3.9c-1.2,1.6-0.7,3.5-2.7,5.8c-4,1.8-4.2,2.4-6.7,6.3
			c-2,3.2-4.4,5.7-4.4,5.7s-4.2-5.3-5.3-9c-1-3.7,0.6-7.3,5-9.8C39.4,59.8,45.3,56.8,47.6,55.8z"/>
		<g>
			<path class="st0" d="M37.6,79l0.3-0.4c0,0-2.7-3.3-3.6-5.6c-1.3-3.1-0.8-5.7,1.4-7c2.4-1.5,14.2-6.9,14.3-7l0-0.4
				c-0.5,0.2-12.1,5.4-14.5,6.9c-2.4,1.5-3,4.3-1.6,7.7C34.9,75.6,37.2,78.4,37.6,79z"/>
		</g>
		<path class="st3" d="M38,78.6l2.3,2c0.5,0.4,1.2,0.3,1.6-0.2L51.4,68c0.4-0.5,0.3-1.2-0.2-1.7l-2.3-2c-0.5-0.4-1.2-0.3-1.6,0.2
			l-9.5,12.3C37.5,77.4,37.5,78.2,38,78.6z"/>
		<g>
			<path class="st0" d="M52.7,115.2c0.3,0,0.6-0.2,0.8-0.6c0.2-0.4-0.1-0.9-0.5-1.1c-0.1,0-10-3.8-13.4-5.7c-5.6-3.2-4.7-5.4-3.3-9
				c0.2-0.4,0.4-0.9,0.5-1.4c1.5-4.1,6.2-15.2,6.2-15.3c0.2-0.4,0-0.9-0.4-1.1c-0.4-0.2-0.9,0-1.1,0.4c0,0.1-4.7,11.2-6.2,15.4
				c-0.2,0.5-0.3,0.9-0.5,1.3c-1.5,3.7-2.8,7.2,4,11.1c3.4,2,13.2,5.7,13.6,5.8C52.5,115.2,52.6,115.2,52.7,115.2z"/>
		</g>
		<path class="st5" d="M97.1,88.6c1.6-2.6,1.8-5,13.2-2.6c11.4,2.4,13.2,2,14.3,4c0.7,1.4,1.5,3.8,1.5,3.8H95.6
			C95.6,93.8,95.2,91.6,97.1,88.6z"/>
		<path class="st3" d="M77.2,79.3c0.8-0.8,1.4-1.6,3.6,0.9c5.5,6.4,9.1,5.9,12.5,4.4c2.4-1.1,7.8-4.7,7.8-4.7s4.8,1.2,6.8,1.8
			c5.1,1.5,5.3,3.2,5.3,4.9c-2.1,0-4.7-0.7-10.9-0.7c-4.5,0-6.5,5.2-6.5,5.2h-9.5c-2.6,0-4.3-1-5.5-3.5C80,85.7,78.9,82.9,77.2,79.3
			z"/>
		<path class="st3" d="M126.1,93.8c0,0,1.9,6.1,3.3,9.9c1.4,3.8,0.7,6.2-3.3,6.2c-4,0-18.4,0-22.8,0c-4.4,0-4.7-2-5.8-6.2
			c-1.1-4.1-1.8-9.9-1.8-9.9H126.1z"/>
		<path class="st4" d="M59.6,110.9h10.6c1.3,0,2.3-1,2.3-2.3V98.2c0-1.3-1-2.3-2.3-2.3H59.6c-1.3,0-2.3,1-2.3,2.3v10.3
			C57.3,109.8,58.3,110.9,59.6,110.9z"/>
		<path class="st0" d="M71.7,96.5c1.6-2.4,4.3-0.7,2.3,2.3c-1.4,2.1-4.4,6.2-5.7,8.6c-1.1,1.9,0.4,2.8,1.3,2.8c1.8,0,21.5,0,21.5,0
			v3.4c0,0-19.3,0-22.7,0c-3.4,0-5.9-3.7-3-8C68.2,101.5,69.9,99.1,71.7,96.5z"/>
		<path class="st0" d="M88.3,114.2h38.4l1.6-5h-40c-1.3,0-2.4,1.1-2.4,2.5l0,0C85.9,113.1,87,114.2,88.3,114.2z"/>
		<polygon class="st0" points="95.6,93.6 126,93.6 126.3,94.4 95.7,94.4 		"/>
		<path class="st2" d="M114.9,95.4l0.7,2.4c0,0-4.7,0-7.2,0c-2.5,0-3.4-2.4-0.6-2.4C111.1,95.4,114.9,95.4,114.9,95.4z"/>
		<path class="st0" d="M114.4,95.9l0.4,1.3c0,0-5.6,0-6.7,0c-1.1,0-1.7-1.3,0-1.3C109.6,95.9,114.4,95.9,114.4,95.9z"/>
		<polygon class="st0" points="99.3,99.3 112.8,99.3 107,101.2 121.7,102.9 101.9,102.9 		"/>
		<path class="st2" d="M45.6,116.1h35.8c0.6,0,1.2-0.5,1.2-1.2v0c0-0.6-0.5-1.2-1.2-1.2H45.6c-0.6,0-1.2,0.5-1.2,1.2v0
			C44.4,115.6,45,116.1,45.6,116.1z"/>
		<g>
			<polygon class="st4" points="65.9,88.1 80.6,94 82.2,89.7 67.5,83.8 			"/>
			<polygon class="st2" points="67.9,89.6 78.1,93.8 79.2,90.8 69,86.6 			"/>
			<polygon class="st3" points="80.6,94 79.3,97.6 72.1,104.2 65.8,101.4 65.9,88.1 			"/>
		</g>
		<g>
			<polygon class="st4" points="63.7,88.1 49,94 47.4,89.7 62.1,83.8 			"/>
			<polygon class="st0" points="61.7,89.6 51.5,93.8 50.4,90.8 60.6,86.6 			"/>
			<polygon class="st3" points="49,94 50.3,97.6 57.5,104.2 63.8,101.4 63.7,88.1 			"/>
		</g>
		<path class="st5" d="M57.3,71c4.3,0.4,12.8,3.5,18.3,6.9c3.9,2.4,3.3,7.1-0.7,7.1c-5.8,0-13.2,0-18.9,0c-5.8,0-8.1-2.2-6.9-7.1
			C50.3,73.1,52.3,70.5,57.3,71z"/>
		<ellipse class="st2" cx="65.2" cy="92.1" rx="5.3" ry="5.5"/>
		<path class="st4" d="M61.9,92c0,1.9,1.5,3.5,3.3,3.5c1.8,0,3.3-1.6,3.3-3.5c0-1.9-1.5-3.5-3.3-3.5C63.4,88.6,61.9,90.1,61.9,92z"
			/>
		<polygon class="st4" points="105,86 107,81.5 104.7,80.9 102.4,86 		"/>
		
			<rect x="52.7" y="80.2" transform="matrix(-1 -1.224647e-16 1.224647e-16 -1 114.5932 161.7211)" class="st4" width="9.3" height="1.2"/>
		<path class="st5" d="M51.6,62.9l7.1,1.9c0.5,0.1,1-0.2,1.2-0.7l0.2-1c0.1-0.5-0.2-1.1-0.7-1.2l-7.1-1.9c-0.5-0.1-1,0.2-1.2,0.7
			l-0.2,1C50.8,62.2,51.1,62.7,51.6,62.9z"/>
	</g>
	<g>
		<path class="st6" d="M83.5,44.2c0,0,0.8,0.9,0.5,2.6c-0.3,1.8-0.5,3.2-0.5,3.2l7.6-2.9c0,0-1.4-3.6-1.4-5.3
			c-0.1-1.7-0.1-1.7-0.1-1.7L83.5,44.2z"/>
		<path class="st7" d="M90,39c-0.1,4.1-2.5,5.1-5.8,6.4c-2.1,0.8-3.5-0.2-4.2-1.6c-0.1-0.2-0.2-1.3-0.3-1.5C79.7,42.1,79.3,42,79,42
			c-0.4,0-0.6-0.3-0.6-0.5c0.2-1.2,0.6-1.9,0.9-3c0.3-1-0.2-1.6,0-2.6c0.9-3.9,2-4.9,4.8-4.9C88.5,31,90.2,33.2,90,39z"/>
		<path class="st1" d="M54.3,106.7c0,0-2.1,2.2-5,2.6c-2.9,0.4-3.9,0.4-4.8,2.8c-0.6,1.6,3.4,1.6,3.4,1.6h14l0.5-8L54.3,106.7z"/>
		<path class="st8" d="M80.6,73.9c0,0-13.3,3.5-18.2,5.5c-4.5,1.8-5.2,3.9-6.1,8.2c-1,4.4-3.9,19.7-3.9,19.7s3.2,1.6,5.4,1.6
			c2.3,0,5.6-0.6,5.6-0.6l2.4-18.1c0,0,9.6-0.5,14.7-1.8c3.3-0.9,10.3-0.4,12.8-3.4c1.3-1.5,1.6-7.3,0.9-10.4
			C92.6,67.1,80.6,73.9,80.6,73.9z"/>
		<path class="st1" d="M81.1,50.3c0.9-1.3,2.6-2.3,5-3.5c1.8-0.9,4.5-1.2,6.2,0.5c3.9,4,2.5,12.7,3.5,19c1.1,6.3,0.7,14.5,0.7,14.5
			s-6.4,1.9-11.4,0.2c-5-1.6-10.3-5.5-10.3-5.5s2.8-6.6,4-11.5C80.3,58.3,79.6,52.4,81.1,50.3z"/>
		<path class="st7" d="M85.8,48c-2.6-0.1-3.7,4.1-5,6.9c-1.5,3.4-6.7,8.7-6.7,8.7s-9.6-4.8-13.2-5.1c-3.7-0.3-5.6,2.5-5.6,2.5
			s4.1,1.7,7.2,3.9c4.3,3.1,8.2,5.3,10.7,6.2c2.5,1,6.3-1.7,8.9-4.6c2.6-2.9,6.8-5.5,8.9-9.4C92.9,53.3,91.4,48.2,85.8,48z"/>
		<path class="st9" d="M79.4,37.7l-0.1,0.8c0,0,0.5-0.2,0.8,0.2c0.4,0.5,0.3,1.3,2.4,0.8c2.2-0.5,3.6-1.6,3.6-1.6l-1.2-0.4
			L79.4,37.7z"/>
		<path class="st10" d="M79.3,34.8c0,0,4.5,3,6.6,3.8c2.1,0.9,4.1,1.4,4.1,1.4s2.9-6-2.1-9C81.5,27.2,79.3,34.8,79.3,34.8z"/>
		<path class="st10" d="M89.3,38.9c0,0,0.2,2,1.8,3c1.6,0.9,4.1,2.7,4.1,2.7s0.5-2.5-1-3.3C92.6,40.6,89.3,38.9,89.3,38.9z"/>
		<path class="st10" d="M89.7,38.4c0,0,2,0.6,3.9,0c1.9-0.6,3.9-0.8,3.9-0.8s-1,1.7-2.8,2.5c-2.5,1.2-4.4-0.1-4.4-0.1L89.7,38.4z"/>
		<path class="st5" d="M79.8,72.9l-0.6,1.3c0,0,1,1.5,3.7,2.4C85.7,77.6,88,78,88,78l0.6-2.3C88.6,75.6,83,74.4,79.8,72.9z"/>
		<path class="st7" d="M60.8,58.6c0,0-5.6-2.6-7.3,2.8c-1,3-0.5,3.7,1.8,3c2.3-0.8,4.9-1.2,4.9-1.2L60.8,58.6z"/>
	</g>
	<path class="st9" d="M80.1,43.8c0,0-0.2,1.4,0.4,2.5c0.6,1.1,2.2,0.9,2.8,0.5c1-0.5,3.7-2.7,3.7-2.7s-3.3,0.2-4.4,0.7
		C81.4,45.4,80.1,43.8,80.1,43.8z"/>
</g>
</svg>
