<?xml version="1.0" encoding="utf-8"?>
<!-- Generator: Adobe Illustrator 23.1.0, SVG Export Plug-In . SVG Version: 6.00 Build 0)  -->
<svg version="1.1" id="Layer_1" xmlns="http://www.w3.org/2000/svg" xmlns:xlink="http://www.w3.org/1999/xlink" x="0px" y="0px"
	 viewBox="0 0 79.5 77.4" style="enable-background:new 0 0 79.5 77.4;" xml:space="preserve">
<style type="text/css">
	.st0{fill:#C88F76;}
	.st1{fill:#4A5993;}
	.st2{fill:#24272B;}
	.st3{fill:#393E42;}
	.st4{fill:#181B20;}
	.st5{fill:#FFFFFF;}
	.st6{fill:#768F91;}
	.st7{fill:#EA663A;}
	.st8{fill:#DD542F;}
	.st9{fill:#FF8978;}
	.st10{fill:#636FAD;}
	.st11{fill:#FBC2AB;}
</style>
<g>
	<path class="st0" d="M49.1,32c0,0-2,3.7-3.7,5.5c-1.7,1.8-7.2,4.9-7.2,4.9l0.4,2.7c0,0,6.9-3.2,8.6-4.5c0.5-0.4,4-5.8,4-5.8
		L49.1,32z"/>
	<path class="st1" d="M49.7,41.6c0,0-7.6,0.2-10.1,1.9c-2.5,1.8,5.1,6.2,6.5,5.4C47.5,48.2,49.7,41.6,49.7,41.6z"/>
	<g>
		<g>
			<path class="st2" d="M30.2,41.1c3,0.7,6.6,5.3,9.4,6.1c2.8,0.8,12.9,5.1,12.9,5.1l11.6,1.1l-3.5,12H30.5c-1.1-2.8-6-15.9-6.7-19
				C22,38.9,25.7,40.1,30.2,41.1z"/>
			<polygon class="st3" points="22.6,45.7 27.3,59.1 28.5,60 29.2,57.9 24.1,42.9 			"/>
		</g>
		<g>
			<path class="st4" d="M68.3,52.5c6.2,0,11.2,5.5,11.2,12.3s-5,12.3-11.2,12.3c-6.2,0-11.2-5.5-11.2-12.3S62.2,52.5,68.3,52.5z
				 M68.3,71.1c3.2,0,5.7-2.8,5.7-6.3c0-3.5-2.6-6.3-5.7-6.3c-3.2,0-5.7,2.8-5.7,6.3C62.6,68.3,65.2,71.1,68.3,71.1z"/>
			<path class="st5" d="M68.3,56.3c4.3,0,7.8,3.8,7.8,8.5c0,4.7-3.5,8.5-7.8,8.5s-7.8-3.8-7.8-8.5C60.6,60.1,64.1,56.3,68.3,56.3z
				 M62.6,64.8c0,0.8,0.1,1.6,0.4,2.3l2.9-2.2l-3-2.3C62.7,63.3,62.6,64,62.6,64.8z M69.3,71c1.1-0.2,2.1-0.8,2.9-1.5l-2.9-2.2V71z
				 M72.7,68.8c0.2-0.3,0.4-0.5,0.5-0.8l-2.9-2.2c-0.1,0.3-0.3,0.6-0.5,0.8L72.7,68.8z M74.1,64.8c0-0.8-0.1-1.6-0.4-2.3l-3.1,2.4
				c0,0,0,0,0,0l3.1,2.4C73.9,66.5,74.1,65.7,74.1,64.8z M68.3,58.5c-0.2,0-0.3,0-0.5,0v3.9c0.1,0,0.3-0.1,0.5-0.1
				c0.2,0,0.3,0,0.4,0.1v-3.9C68.6,58.5,68.5,58.5,68.3,58.5z M66.3,64.1c0.1-0.3,0.2-0.6,0.4-0.9L63.8,61c-0.2,0.3-0.3,0.5-0.5,0.8
				L66.3,64.1z M69.6,62.3l2.7-2.1c-0.7-0.8-1.7-1.4-2.7-1.6V62.3z M69.9,63.1c0.2,0.2,0.4,0.5,0.5,0.8l2.9-2.3
				c-0.1-0.3-0.3-0.6-0.5-0.8L69.9,63.1z M64.4,69.3c0.7,0.7,1.5,1.3,2.5,1.5v-3.5L64.4,69.3z M66.8,66.5c-0.2-0.2-0.4-0.5-0.5-0.8
				l-2.9,2.3c0.1,0.3,0.3,0.6,0.5,0.8L66.8,66.5z M64.3,60.3l2.8,2.2v-3.9C66,58.9,65.1,59.5,64.3,60.3z M68.6,71.1v-3.9
				c-0.1,0-0.1,0-0.2,0c-0.2,0-0.5-0.1-0.7-0.1v4c0.2,0,0.5,0,0.7,0C68.4,71.1,68.5,71.1,68.6,71.1z"/>
		</g>
		<g>
			<path class="st4" d="M11.2,52.5c6.2,0,11.2,5.5,11.2,12.3s-5,12.3-11.2,12.3S0,71.6,0,64.8S5,52.5,11.2,52.5z M11.2,71.1
				c3.2,0,5.7-2.8,5.7-6.3c0-3.5-2.6-6.3-5.7-6.3c-3.2,0-5.7,2.8-5.7,6.3C5.4,68.3,8,71.1,11.2,71.1z"/>
			<path class="st5" d="M11.2,56.3c4.3,0,7.8,3.8,7.8,8.5c0,4.7-3.5,8.5-7.8,8.5c-4.3,0-7.8-3.8-7.8-8.5
				C3.4,60.1,6.9,56.3,11.2,56.3z M5.4,64.8c0,0.8,0.1,1.6,0.4,2.3l2.9-2.2l-3-2.3C5.6,63.3,5.4,64,5.4,64.8z M12.1,71
				c1.1-0.2,2.1-0.8,2.9-1.5l-2.9-2.2V71z M15.5,68.8c0.2-0.3,0.4-0.5,0.5-0.8l-2.9-2.2c-0.1,0.3-0.3,0.6-0.5,0.8L15.5,68.8z
				 M16.9,64.8c0-0.8-0.1-1.6-0.4-2.3l-3.1,2.4c0,0,0,0,0,0l3.1,2.4C16.7,66.5,16.9,65.7,16.9,64.8z M11.2,58.5c-0.2,0-0.3,0-0.5,0
				v3.9c0.1,0,0.3-0.1,0.5-0.1c0.2,0,0.3,0,0.4,0.1v-3.9C11.5,58.5,11.3,58.5,11.2,58.5z M9.1,64.1c0.1-0.3,0.2-0.6,0.4-0.9L6.6,61
				c-0.2,0.3-0.3,0.5-0.5,0.8L9.1,64.1z M12.4,62.3l2.7-2.1c-0.7-0.8-1.7-1.4-2.7-1.6V62.3z M12.7,63.1c0.2,0.2,0.4,0.5,0.5,0.8
				l2.9-2.3c-0.1-0.3-0.3-0.6-0.5-0.8L12.7,63.1z M7.2,69.3c0.7,0.7,1.5,1.3,2.5,1.5v-3.5L7.2,69.3z M9.6,66.5
				c-0.2-0.2-0.4-0.5-0.5-0.8l-2.9,2.3c0.1,0.3,0.3,0.6,0.5,0.8L9.6,66.5z M7.1,60.3l2.8,2.2v-3.9C8.8,58.9,7.9,59.5,7.1,60.3z
				 M11.4,71.1v-3.9c-0.1,0-0.1,0-0.2,0c-0.2,0-0.5-0.1-0.7-0.1v4c0.2,0,0.5,0,0.7,0C11.2,71.1,11.3,71.1,11.4,71.1z"/>
		</g>
		<path class="st6" d="M23.2,60.5c0,0-1.8-5.1-5.9-7.3C11.8,50.3,8.4,52,8.4,52s0.2,1.8,4.1,2.4c3.7,0.6,4.9,2.2,7.9,5.4
			C21.1,60.6,23.2,60.5,23.2,60.5z"/>
		<g>
			<path class="st3" d="M21.5,35.7c2.5,0.2,3.3,3.1,3.3,3.1s0.3,3.6-3.3,3.6c0,0,0,0-0.1,0V35.7z"/>
			<path class="st7" d="M21,35.7c0,0-2.6,0.5-2.6,3.4c0,2.8,2.7,3.4,2.7,3.4L21,35.7z"/>
			<path class="st5" d="M21.3,43.2L21.3,43.2c-0.3,0-0.6-0.3-0.6-0.6v-7.1c0-0.3,0.3-0.6,0.6-0.6l0,0c0.3,0,0.6,0.3,0.6,0.6v7.1
				C21.9,43,21.6,43.2,21.3,43.2z"/>
		</g>
		<g>
			<path class="st3" d="M32.7,68.6h14.6c1,0,1.7-0.8,1.7-1.7v-2.9c0-1-0.8-1.7-1.7-1.7H32.7c-1,0-1.7,0.8-1.7,1.7v2.9
				C31,67.8,31.8,68.6,32.7,68.6z"/>
			<path class="st6" d="M37.2,65c0,0.9,0.6,1.6,1.4,1.6c0.8,0,1.4-0.7,1.4-1.6s-0.6-1.6-1.4-1.6C37.8,63.4,37.2,64.1,37.2,65z"/>
			<path class="st4" d="M31.4,63c0,1.2,0.8,2.1,1.9,2.1c1,0,1.9-0.9,1.9-2.1c0-1.2-0.8-2.1-1.9-2.1C32.2,60.9,31.4,61.8,31.4,63z"/>
		</g>
		<g>
			<path class="st7" d="M61.9,53.5c-1.4,1-2.3,2.1-2.9,3l-1.1-1.3c0,0,1.8-4.1,8.2-5.6c6.4-1.5,10.6,1.8,10.6,1.8
				c-0.2,0.4-0.4,0.8-0.6,1.1c-1-0.5-3.2-1.4-5.5-1.5C67.3,50.8,65.1,51.1,61.9,53.5z"/>
			<path class="st8" d="M67.5,54.2c-4.7,0.7-7.5,3.4-7.5,3.4l-1-1.2c0.6-0.9,1.6-1.9,2.9-3c3.1-2.4,5.4-2.6,8.6-2.5
				c2.3,0.1,4.5,1,5.5,1.5C74.3,54.8,71.7,53.5,67.5,54.2z"/>
		</g>
		<path class="st4" d="M51,50c-2.4-0.4-3.3,3.1,0.6,4c1.1,0.3,5.1,0.6,6.9,0.5c1.8-0.2,3.9-1.7,5.2-3c0.7-0.6,3.9-2.6,9.7-1.8
			c0.5,0.1,3.1-1.9,0.6-2.9c-5.9-2.1-8.4-1.7-12,1.1C59.9,49.5,60.9,51.6,51,50z"/>
		<g>
			<path class="st3" d="M60.2,56.3l7.8,9.1c0.2,0.2,0.5,0.2,0.7,0l0.7-0.7c0.2-0.2,0.2-0.5,0-0.7l-7.8-9.1c-0.2-0.2-0.5-0.2-0.7,0
				l-0.7,0.7C60,55.8,60,56.1,60.2,56.3z"/>
			<path class="st2" d="M59.2,56c0,1.2,0.9,2.1,1.9,2.1c1.1,0,1.9-0.9,1.9-2.1c0-1.2-0.9-2.1-1.9-2.1C60.1,53.9,59.2,54.9,59.2,56z"
				/>
			<path class="st3" d="M56.9,55c-4.9,0.1-7.9-0.2-8.9,0.8c-2,1.9-0.2,7.2,2.9,7.2c3.3,0,7-1.9,8.8-3.6C62.2,57,61.2,54.9,56.9,55z"
				/>
		</g>
		<g>
			<g>
				<path class="st5" d="M36,22.6c0,0-1.9,1.3-3.1,2.1c-0.6,0.4-1.1,1-1.5,1.7c-1.4,2.5-4.8,8.8-4.8,8.8l-9.8,17.4l1.7,1.3l13.9-25
					c0.7-1.2,1.7-2.2,2.9-2.8l1.5-0.7C36.8,25.4,36,22.6,36,22.6z"/>
				<path class="st2" d="M10.5,65.9c-0.5-0.4-0.7-1.1-0.4-1.7l6.5-11.6l1.8,1.3L12,65.5C11.7,66,11,66.2,10.5,65.9z"/>
			</g>
			<path class="st4" d="M19.6,46.1l3.1,2.1c0.2,0.1,0.5,0.1,0.6-0.2l1-1.8c0.1-0.2,0.1-0.5-0.1-0.6L21,43.6
				c-0.2-0.1-0.5-0.1-0.6,0.2l-1,1.8C19.3,45.7,19.4,46,19.6,46.1z"/>
			<path class="st4" d="M16,53l2.4,1.6c0.2,0.1,0.4,0,0.5-0.1l0.7-1.4c0.1-0.2,0-0.4-0.1-0.5l-2.4-1.6c-0.2-0.1-0.4,0-0.5,0.1
				l-0.7,1.4C15.8,52.7,15.8,52.9,16,53z"/>
		</g>
		<g>
			<path class="st7" d="M28.2,39.9c0,0,0.9-3.3,5.5-1.5c4.6,1.8,7.8,4.4,10.3,6.1c0.7,0.5,1.8,1.1,1.6,3.2
				c-0.4,3.4-10.8,1.1-14.4,0.6C29.2,48.1,27.3,46.9,28.2,39.9z"/>
			<path class="st9" d="M32.7,39.7c1.5,0.6,5.4,2.6,6.8,3.8c1.3,1.2,1.2,3.3-1.3,3.3c-2.5,0-6.3-0.1-7.4-1.2c-1.1-1.1-1-3-1.1-3.8
				C29.8,40.1,30.4,38.8,32.7,39.7z"/>
		</g>
		<path class="st6" d="M38.2,58.5c0-0.1,0-0.2,0.1-0.3c0,0,0,0,0,0L41,53l-1-0.6l0.9-1.8c0,0,1.1-0.5,2.6,0.4c0,0,0,0,0.1,0.1
			c0,0,0.1,0,0.1,0c1.5,0.9,1.7,2.2,1.7,2.2l-0.9,1.8l-0.8-0.5L41,59.9c0,0,0,0.1,0,0.1c-0.2,0.3-0.5,0.4-0.8,0.2l-1.7-1.1
			c-0.1-0.1-0.2-0.2-0.3-0.4C38.2,58.6,38.2,58.6,38.2,58.5z M39.4,58.3l1,0.6l2.4-4.8l-1-0.6L39.4,58.3z"/>
		<path class="st6" d="M30.1,51.1C30.1,51,30.1,51,30.1,51.1c0.1-0.1,0.1-0.1,0.2-0.1c1.5-0.9,2.6-0.4,2.6-0.4l0.9,1.8l-1,0.6
			l2.7,5.2c0,0,0,0,0,0c0,0.1,0.1,0.2,0.1,0.3c0,0.1,0,0.1,0,0.2c0,0.2-0.1,0.3-0.3,0.4l-1.7,1.1c-0.3,0.2-0.6,0.1-0.8-0.2
			c0,0,0-0.1,0-0.1l-2.7-5.2l-0.8,0.5l-0.9-1.8C28.4,53.3,28.6,52,30.1,51.1z M33.4,58.9l1-0.6l-2.4-4.7l-1,0.6L33.4,58.9z"/>
		<g>
			<path class="st4" d="M33.4,54.7c0,2.1,1.5,3.8,3.4,3.8c1.9,0,3.4-1.7,3.4-3.8c0-2.1-1.5-3.8-3.4-3.8C35,51,33.4,52.7,33.4,54.7z"
				/>
			<path class="st6" d="M36,54.7c0,0.5,0.4,0.9,0.8,0.9c0.5,0,0.8-0.4,0.8-0.9c0-0.5-0.4-0.9-0.8-0.9C36.4,53.8,36,54.2,36,54.7z"/>
		</g>
		<g>
			<path class="st6" d="M36.2,68.2l-0.4,0c-3.5,0-3.9-0.9-4.7-2.7L31,65.1c-2.8-6.3-0.5-8.9-0.5-8.9c0.2-0.3,0.6-1.2,0.1-1.6
				c-0.5-0.4-1.1,0.1-1.3,0.4c-0.1,0.1-2.8,3.4,0.4,10.7l0.2,0.4c1,2.2,1.7,3.6,5.9,3.6l0.4,0V68.2z"/>
		</g>
		<g>
			<path class="st6" d="M50.5,64.6c-1-0.2-1.9-1-3.2-2.4l-0.4-0.4c-1.8-1.8-4.4-4.6-4.5-4.6c-0.3-0.3-0.7-0.3-1,0
				c-0.3,0.3-0.2,0.8,0,1c0,0,2.6,2.8,4.5,4.6l0.4,0.4c1.5,1.5,2.6,2.6,4.1,2.8V64.6z"/>
		</g>
	</g>
	<rect x="36.2" y="68.2" class="st6" width="14.3" height="1.5"/>
	<g>
		<path class="st3" d="M28.2,60.9c0.4,1.8,1.5,1.9,2.8,2.5c1.3,0.5,2.4,1.8,3.4,1.7c0.9-0.1,1.9-1.3,3.5-1.1c1.2-1.9,1.1-3.4,1-3.3
			l-4.5-1.1c-1.2,0.3-1.9,1-4.3,0c-1.3-0.6-2.3-0.5-2.8,0C27.6,59.7,28,60.1,28.2,60.9z"/>
		<path class="st2" d="M27.4,62.3c0.8,1.1,2.2,2.1,3.5,2.6c2.4,0.9,3.6,2.7,4.8,1.7c1-0.9,1.8-1.8,2.3-2.6c-1.6-0.2-2.6,1-3.5,1.1
			c-1,0.1-2-1.2-3.4-1.7c-1.3-0.5-2.4-0.6-2.8-2.5c-0.2-0.8-0.6-1.2-0.9-1.4C26.6,60,26.6,61.2,27.4,62.3z"/>
	</g>
	<path class="st10" d="M49.1,43.5c0,0-4.7,0.8-5.7,1.2c-1,0.4-3.3,4.9-5.2,8c-0.9,1.6-5.1,6.7-5.1,6.7s1.8,3.1,2.9,4
		c1.1,0.9,3.2,0.3,3.2,0.3s3.9-5.8,4.8-7.9c0.6-1.3,1.8-4.7,1.8-4.7s8.4,2.3,10.7,0c2-2,0.8-8,0.8-8L49.1,43.5z"/>
	<path class="st0" d="M50,22.6c0,0,0.8,1.9,1.2,4.1c0.4,2.2,3.9-1.5,3.9-1.5l-0.8-3.4L50,22.6z"/>
	<path class="st3" d="M54.6,24.1c-1.8-0.6-4.3,2.5-5,3.3c-0.7,0.9-1.1,2.3-1.1,2.3s0,4.9-0.2,6.6c-0.1,1.7,0.6,2.1,0,3
		c-0.6,0.9-0.8,0.6-1,1.4c-0.4,1.6,0.1,2.4,0.1,2.4s2.3,2.2,6,2.1c3.6-0.1,4.4-0.9,4.4-0.9s0.2-2.6-0.1-6.2c-0.1-1.4-0.1-4,0-4.9
		C57.9,31.3,59.2,25.5,54.6,24.1z"/>
	<path class="st11" d="M39.4,23.3c0,0,1.2,2,3.3,3.3c2.1,1.3,3.5,2.9,4.9,3.7c1,0.6,1.7-0.1,4.1-2.5c2.4-2.4,3.6-2.5,4.9-0.8
		c1.1,1.5,0.3,2.9-2,5.1c-2.3,2.2-4.5,2.6-5.8,3.3c-1.3,0.8-3-0.4-3.9-1.4c-3.2-3.2-7.2-9.1-7.2-9.1L39.4,23.3z"/>
	<path class="st2" d="M34.4,24.4c0,1,0.7,1.8,1.6,1.8s1.6-0.8,1.6-1.8c0-1-0.7-1.8-1.6-1.8S34.4,23.4,34.4,24.4z"/>
	<path class="st3" d="M36.4,25.4h4.4c0.5,0,0.9-0.4,0.9-1l0,0c0-0.5-0.4-1-0.9-1h-4.4c-0.5,0-0.9,0.4-0.9,1l0,0
		C35.5,25,35.9,25.4,36.4,25.4z"/>
	<path class="st11" d="M54.1,19.7c0,2.4-0.9,3.2-2.8,4c-1.2,0.5-2-0.1-2.4-1c-0.1-0.1-0.1-0.8-0.2-0.9c0-0.1-0.3-0.2-0.5-0.2
		c-0.2,0-0.4-0.2-0.3-0.3c0.1-0.7,0.3-1.1,0.5-1.8c0.2-0.6,0-0.5,0-0.8c0-2.4,1.2-3.4,2.8-3.4S54.1,17.2,54.1,19.7z"/>
	<path class="st8" d="M54.9,19.1c0,0,1.1-0.8,2.7-0.5s2.2,0.5,2.2,0.5s-2.3,1.9-3.6,1.4C54.9,20,54.9,19.1,54.9,19.1z"/>
	<path class="st8" d="M57.8,20.7c-1.3-1.7-3-1-3-1l-0.9,0c0,0,1.6,1.1,2.8,2.5c1.3,1.5,3.4,1.1,3.4,1.1S59,22.4,57.8,20.7z"/>
	<path class="st2" d="M48.4,15.1c0,0-0.9,0.8,1.4,2.3c1.2,0.8,3.4,2.3,3.4,2.3s0,1.4,0.2,2.2s0.4,1.7,1.8,3.3
		c0.2,0.2,1.1,0.8,1.9,1.3c0.7,0.5,0.9,1.8,0.9,1.8s0.5-1.5-1.9-6.2c-0.9-1.7,0-5.9-0.5-6.4c-0.5-0.5-1.2-0.8-2.2-0.9
		c-1.1-0.2-2.3,0.2-3.1,0.3C49.7,15.1,49.3,14.9,48.4,15.1z"/>
	<path class="st7" d="M48.8,16.6c0,0-0.7,1.6-0.4,2.1c1,0.5,3.9,1,4.8,1c0.9,0,2.4-0.1,2.4-0.1v-1.4C55.6,18.2,50,17.2,48.8,16.6z"
		/>
	<path class="st11" d="M38.1,22.3c-0.3-0.4-0.8-0.5-1.4,0.3c-0.6,0.9-1.2,1.3-0.8,2.4c0.4,1.1,0.6,1.1,1.3,1.1
		c0.6,0,0.9-0.4,0.9-0.8c0.2-1.6,1.8-2,1.8-2S39,21.5,38.1,22.3z"/>
	<path class="st11" d="M37.6,25.6l0,0.6c0,0,0.8,0.4,1.7,0.4c0.9,0,1.3-1.2,1.3-1.2L37.6,25.6z"/>
	<path class="st2" d="M50.5,39.4l-0.1,1c0,0,1.7,0.8,2.7,1.3c1.1,0.4,2.1,0.8,2.1,0.8v-1.5C55.2,40.9,52,39.4,50.5,39.4z"/>
	<path class="st0" d="M67.6,22.3c0,0,0.4,1.7,0.3,3.1c-0.2,1.5,2.9,0.3,2.9,0.3l-0.4-3.8L67.6,22.3z"/>
	<path class="st11" d="M70.2,19.9c0,2.2-1.9,3.6-3.1,3.8c-0.6,0.1-1.3-0.2-1.7-1.1C65.3,22.3,65.2,22,65,22c-0.3,0-0.8-0.2-0.8-0.4
		c0.1-0.5,0.1-0.9,0.2-1.3c0.1-0.4,0.2-0.7,0-1.1c0.4-2.2,1.2-3.4,2.8-3.4C68.9,15.9,70.2,17.7,70.2,19.9z"/>
	<path class="st8" d="M54.9,59.5c0,0-0.7,2-1.7,3.1c-0.6,0.6-1.4,0.8-2,1c-0.5,0.2-0.9,0.4-0.9,1c0.1,0.8,2.2,0.8,4.1,0.6
		c1.2-0.4,2.6-1.9,2.6-1.9v1.9h0.6c0,0,1.1-1.9,0.7-4.3C57.8,58.5,54.9,59.5,54.9,59.5z"/>
	<path class="st1" d="M66.4,40.4c0,0-3.9,0.3-7.2,2.1c-0.9,0.5-2.2,1.2-2.7,1.7c-1.8,1.7-1.1,3.3-1.3,6.2c-0.2,2.3-0.4,7.1-1.1,10.2
		c1.2,1.1,4.6,0.9,4.6,0.9s1.2-9.1,1.1-12c2.1,0.1,8.5-1.3,10-2.7c1.2-1,0.8-6,0.8-6L66.4,40.4z"/>
	<path class="st2" d="M68.8,24.6c-0.7,0.2-1.3,0.3-2.7,1.6c-0.6,0.5-1.1,1.2-1.8,2.1c-0.8,1-0.8,1.9-0.6,3.1c0.2,1,0.4,2,0.4,2.5
		c0,2.9-1.6,6.4-1.6,6.4s0.1,2.4,3.5,2.9c3.4,0.5,5.1-0.3,5.1-0.3s-0.9-7.9,0.3-11.5C72.5,27.8,71.2,23.9,68.8,24.6z"/>
	<path class="st11" d="M59.9,41.6c0,0-1.6,0.5-2.7,1.7c-1,1.2-1.6,1.8-1.6,2.8c0,1,2.1,0.2,2.9-1c0.8-1.2,2.1-1.8,2.1-1.8L59.9,41.6
		z"/>
	<path class="st3" d="M67.3,26.2c-0.7,0.6-0.7,3.1-0.9,5.2c-0.3,3-0.5,4.8-0.5,4.8l-6.9,5.5c0,0,0.8,0.7,1.3,2.6
		c1.4-0.6,2.8-1.1,5.4-3.1c1-0.8,2.7-1.7,3-2.3c1-2.1,1.9-5.5,2.4-7.6c0.5-2.1,0.3-3.9-0.6-5.2C69.7,25.2,68.5,25.2,67.3,26.2z"/>
	<path class="st8" d="M74.9,25.2c-1.9-5.7-2.7-7.5-4.7-9.4s-4.4-1.2-5.3,0C64.6,16.3,64,17,64.3,18c0.2,0.5,2.4,0.9,2.4,1.2
		c0.3,2.3,1.6,4.7,3.6,5.4c0.3,1.9,1.5,4.6,5.5,5.5c1.3,0.3,3.3-0.6,3.3-0.6S75.6,27.2,74.9,25.2z M68.2,22.1
		c-0.3-0.5-0.5-1-0.7-1.5c0.7,1.2,1.6,2.3,2.7,2.7c0,0.2,0,0.5,0,0.8C69.4,23.6,68.7,23,68.2,22.1z"/>
	<path class="st3" d="M71.1,16.8c0,0-2.8,2.2-5.7,1.5L64.3,18l0.2,1.2c0,0,1.3,0.8,3.7,0.3c2.4-0.5,3.6-1.8,3.6-1.8L71.1,16.8z"/>
	<path class="st0" d="M49.9,19.5c-0.2-0.2-0.5-0.3-0.8-0.2c-0.2,0-0.1,0.1,0,0.2c0.1,0.1,0.2,0.1,0.4,0.1c0,0,0,0.6,0.2,0.6
		c0.2,0,0.3-0.2,0.2-0.4c0.1,0.1,0.1,0.1,0.2,0.2c0.1,0.1,0.1,0.3,0.2,0.2C50.4,20.1,50.1,19.7,49.9,19.5z"/>
	<path class="st0" d="M49,22.7c0,0,0.4-0.1,0.8-0.2c0.3-0.1,0.6,0.2,0.3,0.3C49.8,22.9,49,22.7,49,22.7z"/>
	<path class="st0" d="M66.3,20.4c-0.1-0.3-0.3-0.5-0.5-0.6c-0.1-0.1-0.4-0.1-0.6,0c-0.1,0.1,0,0.2,0,0.2c0.1,0,0.2,0,0.3,0
		c-0.1,0.2,0,0.7,0.2,0.6c0.1-0.1,0.2-0.3,0.1-0.5c0.1,0.1,0.2,0.2,0.3,0.4C66.2,20.6,66.3,20.6,66.3,20.4z"/>
	<path class="st0" d="M65.7,22.7c0,0,0.4,0.1,0.6-0.1c0.2-0.2,0.5,0.1,0.1,0.2C66.1,23,65.7,22.7,65.7,22.7z"/>
</g>
</svg>
