<?xml version="1.0" encoding="utf-8"?>
<!-- Generator: Adobe Illustrator 23.1.0, SVG Export Plug-In . SVG Version: 6.00 Build 0)  -->
<svg version="1.1" id="Layer_1" xmlns="http://www.w3.org/2000/svg" xmlns:xlink="http://www.w3.org/1999/xlink" x="0px" y="0px"
	 viewBox="0 0 39.5 93.7" style="enable-background:new 0 0 39.5 93.7;" xml:space="preserve">
<style type="text/css">
	.st0{fill:#2A2E6F;}
	.st1{fill:#FFB86C;}
	.st2{fill:#FF9638;}
	.st3{fill:#FFA454;}
	.st4{fill:#85C4BD;}
	.st5{fill:#FFAA0E;}
	.st6{fill:#EE4350;}
	.st7{fill:#67938D;}
	.st8{fill:#496864;}
	.st9{fill:#6F9B94;}
	.st10{fill:#628C86;}
	.st11{fill:#101749;}
	.st12{fill:#6776D1;}
	.st13{fill:#EA663A;}
	.st14{fill:#DC360F;}
	.st15{fill:#E0E0E0;}
	.st16{fill:#FFFFFF;}
	.st17{fill:#D5DBFF;}
	.st18{fill:#FFEEB9;}
</style>
<g>
	<g>
		<path class="st0" d="M14,5.9c-0.2,0.5-0.2,1.1-0.2,1.7c0,0.5,0,1.1-0.1,1.6c-0.2,1.2-1.4,1.8-1.2,3.2c0.3,2,2.6,3.1,2.2,5.3
			c-0.3,1.7-1.9,1.9-3.3,2.2c-0.1,0-0.3,0.1-0.4,0.1c-0.1,0-0.2,0.1-0.3,0.1c-1.3,0.5-2.4,1.8-2.3,3.4c0,0.2,0.1,0.3,0.1,0.5
			c0,0.1,0,0.1,0,0.1l0,0l0,0c0,1.1-0.4,2.1-1.2,2.9l0,0c-0.3,0.5-1.1,1.3-1.5,1.5c-1.2,0.5-2.4,0-2.8-1.3c-0.2-0.5-0.2-1.1-0.4-1.7
			S2,24.3,1.7,23.7C1,22.4,1.3,21.2,2,20.1l0,0c0.2-0.3,0.4-0.6,0.6-0.9c0.6-0.9,1-1.9,1.3-2.9C3.9,16.1,4,16,4,15.9l0,0
			c0.1-1.1,1.7-1.8,2.3-2.4C8.2,11.7,8,8.5,8.5,6c0.2-1,0.6-2.2,1.3-3.1c1-1.3,2.4-1.9,3.9-2.1l0,0c0.4-0.1,0.8-0.2,1.2-0.2l0,0
			c0.1,0,0.1,0,0.2,0c0.1,0,0.2,0,0.2,0l0,0c0.2,0,0.3,0.1,0.5,0.1c0.6,0.1,1.1,0,1.6-0.1c0.6-0.1,1.2-0.3,1.8-0.5
			c0.3-0.1,0.7-0.2,1,0c0.6,0.4,0.6,1.7,0.4,2.3C20.4,2.8,20.2,3,20,3.2c-0.4,0.4-1,0.5-1.6,0.8c-0.6,0.2-1.2,0.2-1.8,0.2
			C15.6,4.3,14.4,4.7,14,5.9z"/>
		<path class="st0" d="M21.6,12.6c0,0.1,0,0.5,0,0.7c-0.1,0-0.3,0.1-0.4,0.1c-0.3,0.1-0.7,0.1-1,0.1c-0.8,0-1.6-0.2-2-1
			c0.2,0,0.4,0,0.6,0c0.8-0.2,1.3-0.8,1.5-1.8c0.2-1.4,0.1-2.9,0-4.2c0-0.2,0-0.5,0-0.7l0,0c0.4,1.1,0.9,2.3,1.2,3.5
			C21.6,10.5,21.6,11.6,21.6,12.6z"/>
	</g>
	<g>
		<path class="st1" d="M18.2,12.6c0.4,0.8,1.1,1,2,1c-0.1,2.4,0,4.8-0.1,7.2c0,0.5-0.1,0.7-0.5,1c-1.6,0.9-3.4,1.7-5.2,1.7
			c-0.9,0-2,0-2.4-1.1c-0.1-0.3-0.3-1.7-0.4-2.6c1.3-0.3,3-0.4,3.3-2.2c0.4-2.2-1.9-3.3-2.2-5.3c-0.2-1.4,1-1.9,1.2-3.2
			c0.1-1-0.2-2.2,0.1-3.2c0.4-1.2,1.5-1.6,2.6-1.6c0.6,0,1.2,0,1.8-0.2c0.7-0.2,1.2-0.4,1.6-0.8c0.1,0.9,0.1,1.7,0.2,2.6
			c0,0.2,0,0.5,0,0.7c0.1,1.4,0.2,2.9,0,4.2c-0.2,1-0.7,1.6-1.5,1.8C18.6,12.7,18.4,12.6,18.2,12.6z"/>
		<path class="st2" d="M17.8,12.6c-1.5,0.4-3.1,0-4.4-0.9c-0.1-0.1-0.3,0.1-0.1,0.2c1.3,1,3,1.4,4.6,1C18,12.8,17.9,12.6,17.8,12.6z
			"/>
	</g>
	<path class="st1" d="M24.3,22.3c0-0.1-0.1-0.1-0.1-0.2c-0.4-0.3-0.7-0.7-1-1.2c-1.5-2.1-2.1-4.8-2.1-7.5c0.1,0,0.3,0,0.4-0.1
		c0.4-0.1,0.9-0.1,1.2-0.2c1.4-0.1,2.2,0.3,3,1.7c1.4,2.6,2.2,5.7,3.3,8.5c1,2.7,2,5.6,3.4,8.1c0.8,1.3,1.8,2.5,2.7,3.7
		c0.8,1.1,1.5,2.3,2.2,3.4c0.2,0.3,0.5,0.7,0.7,1l0,0c0.3,0.7,0.6,1.3,0.9,1.9c0.4,1,0.8,2.4,0.3,3.4c-0.3,0.5-1.2,1.3-1.7,0.7
		c-0.3-0.3-0.3-0.9-0.4-1.3c-0.2-0.7-0.3-1.4-0.5-2c0,0.5-0.1,0.9-0.1,1.4c0,0.2,0,1.1-0.3,1.1s-0.4-1.2-0.4-1.4
		c-0.1-0.9-0.1-1.7-0.3-2.6l0,0c-1.5-2.1-3.4-4.2-5-6.3c-0.5-0.6-0.7-1.2-1.1-1.9C27.7,29.1,26.1,25.6,24.3,22.3z"/>
	<path class="st0" d="M5.3,17.3c0,0.4,0.1,0.9,0.2,1.3c-0.2-0.4-0.4-0.8-0.4-0.9C5.1,17.5,5.3,17.4,5.3,17.3z"/>
	<path class="st0" d="M17.4,36.5c0.1,0,0.2,0,0.4,0c-0.2,0.2-0.3,0.4-0.5,0.6C17.3,36.9,17.3,36.7,17.4,36.5z"/>
	<path class="st3" d="M12.7,36.6c-0.6,0.3-1.1-0.3-1.5-0.8C10.5,35,10.1,34,9.7,33c-0.9-2-1.5-4-2.3-6c-0.4-0.9-0.7-1.8-1.2-2.6
		C6,24,5.6,23.7,5.3,23.5c-0.4-0.3-1-0.5-1.4-0.9c-0.3-0.2-0.4-0.6-0.5-1c-0.3-0.7-0.5-1.4-0.8-2.1c0-0.1-0.1-0.2-0.1-0.3
		c-0.2-0.4-0.4-0.9-0.4-1.4c0.1-0.7,1-2.3,1.8-2l0,0c0.2,0.1,1.3,0.9,1.3,1.3l0,0c0,0.1-0.1,0.2-0.3,0.4c-0.1,0.1-0.1,0.1-0.2,0.2
		c-0.4,0.5-0.6,1-0.9,1.6c0.2,0.5,0.4,1.3,0.5,1.6l0,0c0.7,0.2,1.3,0.3,2,0.6c0.1,0,0.3,0.1,0.4,0.2c0.1,0,0.2,0,0.3,0h0.6
		c0,0.4,0,0.8-0.1,1.2l0,0c0.3,0.3,0.6,0.7,0.8,1c0.3,0.4,0.6,0.8,0.9,1.2c0.3,0.4,0.6,0.8,0.9,1.2c0,0.1,0,0.2,0,0.3
		c-0.1,1.3,0.3,2,1.3,2.7c0.8,0.6,1.5,1.3,2.4,1.8c0,0.6-0.1,1-0.3,1.4c-0.2,0.3-0.4,0.5-0.5,0.8c-0.2,0.7,0.2,1.2,0.2,1.8
		c0,0.3-0.2,0.6-0.3,0.9H13h0.1v0.1C13,36.4,12.9,36.5,12.7,36.6L12.7,36.6z"/>
	<path class="st3" d="M10.7,20c0.1,0,0.2-0.1,0.3-0.1c0,1.3-0.1,2.6-0.3,4c-0.1,0.9-0.3,1.8-0.4,2.6c-0.2-0.4-0.6-0.8-0.9-1.2
		c-0.3-0.4-0.6-0.8-0.9-1.2l0,0V24c0-0.2-0.1-0.3-0.1-0.5C8.3,21.9,9.5,20.5,10.7,20z"/>
	<path class="st3" d="M7.8,21.8H7.2c-0.1,0-0.2,0-0.3,0l0,0c0,0-0.9-2-1.4-3.2l0,0c-0.1-0.4-0.2-0.9-0.2-1.3l0,0l0,0
		c0-0.2,0-0.4,0.1-0.5C6.9,17.7,7.7,19.9,7.8,21.8z"/>
	<g>
		<path class="st3" d="M16.5,64c1,1.5,2,3.1,2.8,4.7h-0.1c-0.9,0.2-1.7,0.3-2.6,0.2c-0.2-2.1-0.5-4.1-0.9-6.1
			C15.9,63.2,16.2,63.6,16.5,64z"/>
		<path class="st4" d="M26.5,35.3c0.7-0.3,1.5-1,2.2-0.4c0.5,0.4,0.7,1,0.7,1.7c0,0.5-0.1,1.2,0,1.7c0.2,0.6,0.8,0.8,1.3,1
			c0.7,0.3,1,0.7,1.1,1.6c0.1,0.7-0.1,1.5,0.1,2.2c0.3,1.3,1.6,2.1,1.8,3.4c0.3,1.2-0.7,2.2-1.4,3c-1.1,1.2-2.4,2.3-3.8,3.3
			c-0.2,0.2-2.4,2.2-2.8,1.5c-0.1-0.1,0-0.5,0-0.6c0-0.4,0-0.7,0-1.1c0-0.6,0-1.2-0.1-1.8c-0.1-1.5-0.2-3-0.3-4.5
			c0-0.6-0.1-1.2-0.1-1.8c-0.1-1.7-0.3-3.6-1.3-5c-0.6-0.7-1.2-1.5-1.9-2c-0.6-0.5-1.2-0.9-1.7-1.4c0.3,0,0.6-0.1,1-0.1
			C23.1,35.9,24.8,35.6,26.5,35.3L26.5,35.3z"/>
		<path class="st1" d="M14,55.2c0.8-1.5,1.7-3,2.6-4.5c0.9,0.1,1.8-0.2,2.3-1.1c0.4-0.8,0.4-1.8,0.4-2.8c0.6-0.8,0.9-1.8,1.8-1.6
			c0,0.6,0.1,1.2,0.8,1.4c0.8,0.1,1.9-0.3,2.5-0.8c0.1-0.1,0.1-0.1,0.2-0.2c0.3,0.2,0.6,0.5,0.9,0.7c0.1,1.5,0.2,3,0.3,4.5
			c0,0.6,0.1,1.2,0.1,1.8C24,54.7,22,56.8,20.2,59c-0.1,0.2-0.4,0.3-0.3,0.6c0,0.4,1.4,1.3,1.6,1.5c0,0,0,0,0.1,0.1
			c-0.3,0.3-0.8,0.7-1.1,1c-1.2,1-2.4,1.5-3.9,1.9c-0.3-0.4-0.5-0.8-0.8-1.2c-0.6-0.9-1.3-1.9-2-2.8c-0.3-0.5-1.1-1.4-1.1-2.1
			c0-0.6,0.6-1.4,0.9-2C13.7,55.8,13.8,55.5,14,55.2z"/>
		<path class="st5" d="M25.3,44.5c0,0.6,0.1,1.2,0.1,1.8c-0.3-0.2-0.6-0.4-0.9-0.7c0.2-0.3,0.3-0.7,0.2-1.1H25.3z"/>
		<path class="st6" d="M25.3,44.5h-0.5c0-0.3-0.1-0.7-0.2-1c-0.6-2.3-2.3-4.1-3.8-5.7l0,0c0-0.4-0.2-1.5-0.6-1.6v-0.1
			c0,0,0.1,0,0.2,0c0.6,0.5,1.1,0.9,1.7,1.4c0.7,0.5,1.3,1.3,1.9,2C25,40.9,25.2,42.8,25.3,44.5z"/>
		<path class="st7" d="M24.5,45.6c-0.1,0.1-0.1,0.1-0.2,0.2c-0.6,0.5-1.7,0.9-2.5,0.8c-0.6-0.1-0.7-0.7-0.8-1.4c0-0.3,0-0.5,0-0.7
			c-0.2-1.9-0.6-3.5-1.3-5.3c0.1,0,0.1-0.1,0.2-0.1c0.4-0.3,0.8-0.7,0.8-1.3c1.6,1.5,3.2,3.4,3.8,5.7c0.1,0.3,0.2,0.6,0.2,1
			C24.8,44.9,24.7,45.3,24.5,45.6z"/>
		<path class="st6" d="M21,44.5c0,0.2,0,0.5,0,0.7c-1-0.2-1.3,0.8-1.8,1.6c0-0.3,0-0.6,0-0.8c0-1.7,0-3.5-0.2-5.2
			c0-0.4-0.1-0.9-0.2-1.3c0.3,0,0.7,0,1-0.2C20.4,41,20.8,42.6,21,44.5z"/>
		<path class="st8" d="M20.8,37.9c0,0.5-0.4,1-0.8,1.3c0,0-0.1,0.1-0.2,0.1c-0.3,0.2-0.6,0.2-1,0.2c-0.2,0-0.5,0-0.7-0.1l0,0v-0.1
			c0.1-1.2,0.8-2.2,1.6-3.1c0.2,0,0.3,0,0.5-0.1v0.1C20.5,36.3,20.7,37.5,20.8,37.9L20.8,37.9z"/>
		<path class="st9" d="M14.1,49.4L14.1,49.4c0-0.4,0.3-1.1,0.4-1.3c0.3-0.8,0.7-1.6,1-2.4c0.7-2.2,0.8-4.7,1.5-7l0,0l0,0
			c0.2,0.4,0.7,0.5,1.1,0.6l0,0c0.2,0,0.5,0.1,0.7,0.1c0.1,0.4,0.1,0.9,0.2,1.3c0.2,1.7,0.2,3.5,0.2,5.2c0,0.3,0,0.5,0,0.8
			c0.1,1,0.1,2.1-0.4,2.8c-0.5,0.9-1.5,1.2-2.3,1.1c-0.3,0-0.6-0.1-0.8-0.2C15.3,50.4,14.2,50.1,14.1,49.4z"/>
		<path class="st10" d="M19.7,36.2c-0.8,0.9-1.5,1.9-1.6,3.1v0.1c-0.4-0.1-0.8-0.2-1.1-0.6l0,0c-0.1-0.1-0.1-0.2-0.1-0.4
			c0.2-0.4,0.3-0.8,0.4-1.3c0.2-0.2,0.3-0.4,0.5-0.6C18.4,36.4,19.1,36.3,19.7,36.2z"/>
		<path class="st4" d="M17.4,36.5c0,0.2-0.1,0.4-0.1,0.5c-0.3,0.4-0.5,0.9-0.4,1.3c-0.2,0.4-0.4,0.8-0.6,1.1c-0.5,0.7-1.1,1.3-1.7,2
			c-0.6,0.6-1.3,1.2-1.7,2c-0.5,0.9-0.6,1.9-0.7,2.9c0,1,0.1,1.9,0.3,2.8c0.2,1,0.5,1.9,0.8,2.9c0,0.1,0.2,0.4,0.2,0.7v0.1
			c-0.2,0.1-0.4,0.3-0.6,0.5c-0.7,0.6-1.7,0.6-2.5,0.5c-0.7-0.1-1.5-0.2-2.2-0.3c-0.4-0.1-0.9-0.2-1.2-0.6C6.5,52,7.8,51,8,50.2
			c0.1-0.6-0.1-1.1-0.2-1.7c-0.1-0.9,0.3-1.6,0.8-2.3c0.7-1,1.2-1.9,1.3-3.1c0.1-1.3-0.2-2.5,0.2-3.7c0.5-1.4,1.5-2.2,2.7-2.8
			c0.2-0.1,0.3-0.1,0.5-0.2v-0.1C14.6,36.7,16,36.7,17.4,36.5z"/>
		<path class="st11" d="M17.3,37c-0.1,0.5-0.2,0.9-0.4,1.3C16.8,37.9,17,37.4,17.3,37z"/>
		<path class="st6" d="M17,38.7L17,38.7c-0.6,2.3-0.7,4.8-1.5,7c-0.3,0.8-0.6,1.6-1,2.4c-0.1,0.2-0.5,0.9-0.4,1.3l0,0
			c-0.5,0-1.1-0.1-1.6-0.2h-0.1c-0.2-0.9-0.3-1.9-0.3-2.8c0-1,0.1-2,0.7-2.9c0.5-0.8,1.1-1.4,1.7-2c0.6-0.6,1.2-1.2,1.7-2
			c0.3-0.4,0.5-0.8,0.6-1.1C16.9,38.5,16.9,38.6,17,38.7z"/>
		<path class="st3" d="M13.4,52.9C13.3,52.9,13.3,52.9,13.4,52.9c-0.1-0.4-0.2-0.7-0.2-0.8c-0.3-1-0.6-1.9-0.8-2.9h0.1
			c0.5,0.1,1.1,0.2,1.6,0.2c0.1,0.7,1.2,1,1.6,1.1c0.3,0.1,0.5,0.2,0.8,0.2c-0.9,1.5-1.7,3-2.6,4.5C13.8,54.5,13.5,53.7,13.4,52.9z"
			/>
		<path class="st12" d="M31,46.5c-0.4-1.1-0.1-2.3-0.3-3.4c-0.1-0.5-0.2-1-0.5-1.3c-0.3-0.4-0.7-0.6-1.1-0.8
			c-0.2-0.1-0.4-0.3-0.5-0.6c-0.1-0.2-0.2-0.5-0.2-0.8c-0.1-0.6,0-1.2-0.1-1.8c-0.2-1.1-1-2-1.9-2.1c-0.2,0-0.2,0.2-0.1,0.3
			c0.8,0.2,1.6,0.9,1.7,1.8c0.2,1-0.2,2.3,0.5,3.2c0.3,0.4,0.8,0.5,1.1,0.8c0.4,0.3,0.6,0.7,0.7,1.2c0.3,1,0.1,2.1,0.3,3.2
			c0.1,0.6,0.4,1.2,0.7,1.7c0.3,0.5,0.6,1.2,0.4,1.8c-0.1,0.2,0.1,0.3,0.2,0.1C32.4,48.4,31.3,47.5,31,46.5z"/>
		<path class="st12" d="M32.7,45c-1.2,0-1.9,1.1-2.6,2c-0.4,0.5-0.8,0.9-1.3,1.2s-1,0.5-1.5,0.9c-0.1,0-0.1,0.1-0.2,0.1
			C27,48.8,27,48.4,27,47.9c0.1-0.7,0.4-1.4,0.5-2.2c0-0.4,0-0.8-0.2-1.2c0.2-0.1,0.5-0.2,0.7-0.2c0.4-0.1,0.8-0.3,1.2-0.6
			c0.4-0.3,0.7-0.8,1-1.2c0.3-0.5,0.8-1.1,1.4-1.1c0.2,0,0.2-0.3,0-0.3c-1.2,0.1-1.6,1.5-2.3,2.2c-0.6,0.6-1.3,0.8-2.1,1
			c-0.1-0.1-0.1-0.2-0.2-0.3c-0.3-0.4-0.8-0.7-1.1-1.2c-0.3-0.6-0.2-1.3-0.1-1.9l0,0c0.4-0.1,0.7-0.3,1-0.6c0.7-0.5,1.4-1.2,2.3-0.9
			c0.2,0,0.2-0.2,0.1-0.3c-0.8-0.2-1.5,0.3-2.2,0.8c-0.3,0.3-0.7,0.5-1.1,0.7c0,0-0.1,0-0.2,0c0.1-0.6,0-1.2-0.1-1.8
			c-0.1-0.3-0.3-0.7-0.5-0.9c0.3-0.1,0.6-0.3,0.9-0.5s0.6-0.5,0.7-0.9c0.2-0.4,0.3-1,0.8-1c0.2,0,0.2-0.3,0-0.3
			c-0.4,0-0.7,0.3-0.8,0.7c-0.1,0.2-0.2,0.4-0.3,0.6c-0.1,0.2-0.2,0.4-0.4,0.5c-0.3,0.3-0.7,0.5-1.1,0.6c-0.6-0.7-1.4-1.2-2.3-1.3
			c-0.2,0-0.2,0.3,0,0.3c0.8,0.1,1.5,0.4,2,1.1c-0.4,0.1-0.8,0.1-1.2,0.2c-0.2,0-0.2,0.3,0,0.3c0.4,0,0.9-0.1,1.3-0.2
			c0.2,0.2,0.3,0.5,0.4,0.8c0.2,0.6,0.3,1.3,0.2,1.9l0,0c-0.3,0.1-0.6,0-0.9,0c-0.2,0-0.2,0.2-0.1,0.3c0.3,0.1,0.6,0.1,0.9,0.1
			c-0.1,0.6-0.2,1.1,0,1.7c0.2,0.8,0.9,1.2,1.3,1.8c-0.1,0-0.1,0-0.2,0.1c-0.5,0.2-0.9,0.5-1.2,0.9c-0.1,0.1,0.1,0.3,0.2,0.2
			c0.4-0.5,0.9-0.7,1.4-0.9c0.1,0.2,0.2,0.4,0.2,0.7c0,0.7-0.2,1.4-0.4,2c-0.2,0.7-0.2,1.3,0,2l0,0c-0.4,0.3-0.7,0.6-0.9,1.1
			c-0.1,0.2,0.1,0.3,0.2,0.1c0.2-0.4,0.5-0.7,0.8-0.9c0.2,0.6,0.5,1.1,0.7,1.7c0.2,0.6,0.2,1.3-0.2,1.8c-0.1,0.1,0.1,0.3,0.2,0.2
			c0.4-0.4,0.4-1,0.4-1.6c-0.1-0.6-0.4-1.2-0.6-1.8C27,50,27,49.9,26.9,49.7c0.5-0.3,1-0.6,1.5-0.9c0.5-0.3,0.9-0.6,1.3-1
			s0.7-0.9,1-1.3c0.4-0.5,0.9-0.9,1.6-0.9C32.9,45.2,32.9,45,32.7,45z"/>
		<path class="st12" d="M15.3,37.6c0,1.2-0.9,2.2-1.8,2.8c-0.9,0.7-1.9,1.2-2.6,2.2c-0.3,0.4-0.5,0.9-0.6,1.5s0.1,1.2,0.2,1.8
			c0.1,0.6,0.3,1.2,0.3,1.8s-0.3,1.2-0.4,1.8c-0.2,0.7-0.1,1.3,0.1,2c0.3,0.7,0.6,1.4,1,2.1c0.1,0.2,0.3,0,0.2-0.1
			c-0.3-0.6-0.6-1.2-0.9-1.8c-0.3-0.6-0.4-1.2-0.3-1.9c0.1-0.6,0.4-1.1,0.4-1.8c0.1-0.6-0.1-1.2-0.2-1.7c-0.1-0.6-0.3-1.2-0.3-1.8
			s0.2-1.1,0.5-1.6c0.6-1,1.7-1.5,2.6-2.2C14.4,40,15.4,39,15.3,37.6C15.6,37.5,15.3,37.5,15.3,37.6z"/>
		<path class="st12" d="M13.6,37.3c-0.9,1.6-2.7,2.2-3.5,3.8c-0.2,0.4-0.4,0.9-0.4,1.4c0,0.2,0.2,0.2,0.2,0c0-1.2,0.8-2.1,1.6-2.8
			s1.7-1.3,2.3-2.3C13.9,37.3,13.7,37.1,13.6,37.3z"/>
		<path class="st4" d="M12.8,51.6c-0.8-0.6-1.8-0.3-2.6,0c-0.5,0.2-1,0.3-1.5,0.3c0.2-0.4,0.5-0.7,0.5-1.2s-0.2-1-0.4-1.5
			c-0.2-0.4-0.2-0.9-0.2-1.3c0.5,0.1,1,0,1.5,0c0.6,0,1.2,0,1.7,0.5c0.1,0.1,0.3-0.1,0.2-0.2c-0.9-1.1-2.2-0.4-3.3-0.6
			c0-0.6,0.1-1.1,0.4-1.6c0.1-0.2-0.1-0.3-0.2-0.1c-0.2,0.5-0.4,1.1-0.4,1.7l0,0c-0.1-0.1-0.2,0.2-0.1,0.3h0.1
			c0,0.4,0.1,0.7,0.1,1.1c0,0.5,0.4,1,0.4,1.6c0,0.5-0.3,0.9-0.6,1.3c-0.3,0-0.6-0.2-0.8-0.4c-0.1-0.1-0.3,0.1-0.2,0.2
			C7.7,52,8,52.1,8.3,52.1c-0.2,0.4-0.4,1-0.2,1.5c0.1,0.2,0.3,0,0.2-0.1c-0.2-0.4,0-0.9,0.2-1.3c0.5,0,0.9-0.1,1.4-0.2
			c0.9-0.3,1.9-0.7,2.8-0.1C12.8,52,13,51.7,12.8,51.6z"/>
		<path class="st12" d="M13.2,42.3c-0.7-1-2.1-0.7-2.9-1.6c-0.1-0.1-0.3,0.1-0.2,0.2c0.4,0.4,0.9,0.6,1.5,0.8
			c0.5,0.2,1.1,0.3,1.4,0.8C13.1,42.6,13.3,42.4,13.2,42.3z"/>
		<path class="st12" d="M15.3,40.1c-1.2-0.7-2.4-1.5-3.6-2.4c-0.1-0.1-0.3,0.1-0.1,0.2c1.1,0.9,2.3,1.7,3.6,2.4
			C15.3,40.4,15.4,40.1,15.3,40.1z"/>
		<path class="st12" d="M20.3,37.6c-0.3,0.1-0.6,0.2-0.9,0.4c0-0.1,0-0.2-0.1-0.3c0-0.2-0.3-0.1-0.2,0.1c0,0.1,0,0.2,0.1,0.3
			c-0.3,0.2-0.5,0.5-0.8,0.8c0,0.1-0.1,0.1,0,0.2c0,0,0.1,0.1,0.2,0c0.2-0.3,0.4-0.5,0.7-0.7c0.1,0.3,0.1,0.6,0.2,0.9
			c0,0.2,0.3,0.1,0.2-0.1c-0.1-0.3-0.1-0.7-0.2-1c0.3-0.2,0.6-0.3,0.9-0.4C20.5,37.8,20.5,37.5,20.3,37.6z"/>
	</g>
	<g>
		<path class="st13" d="M11.4,19.8c0.1,0.9,0.3,2.3,0.4,2.6c0.4,1.1,1.5,1.1,2.4,1.1c1.8,0,3.6-0.8,5.2-1.7c0.4-0.2,0.5-0.5,0.5-1
			c0.1-2.4,0-4.8,0.1-7.2c0.3,0,0.7-0.1,1-0.1c0,2.7,0.6,5.3,2.1,7.5c0.3,0.4,0.6,0.8,1,1.2c0,0.1,0.1,0.1,0.1,0.2l0,0
			c0.3,0.8,0.5,2.1,0.5,2.9s-0.1,1.5-0.3,2.3c-0.1,0.8-0.6,1.8-0.4,2.7c0.1,0.7,0.6,1.1,0.9,1.7c0.2,0.4,0.2,0.7,0.2,1.2
			c0,0.7,0.2,0.9,0.7,1.2c0.3,0.2,0.7,0.6,0.7,1c-1.7,0.3-3.5,0.6-5.3,0.8c-0.3,0-0.6,0.1-1,0.1c-0.1,0-0.1,0-0.2,0
			c-0.2,0-0.3,0-0.5,0.1c-0.6,0.1-1.3,0.2-1.9,0.3c-0.1,0-0.2,0-0.4,0c-1.4,0.2-2.8,0.2-4.2-0.2h-0.1h-0.1c0.1-0.3,0.3-0.6,0.3-0.9
			c0-0.6-0.4-1.1-0.2-1.8c0.1-0.3,0.3-0.5,0.5-0.8c0.3-0.5,0.3-0.8,0.3-1.4c-0.8-0.5-1.6-1.2-2.4-1.8c-0.9-0.7-1.4-1.3-1.3-2.7
			c0-0.1,0-0.2,0-0.3c0.1-0.9,0.2-1.8,0.4-2.6c0.2-1.3,0.3-2.6,0.3-4C11.1,19.9,11.3,19.9,11.4,19.8z"/>
		<path class="st14" d="M21,30.4c-0.1-0.3-0.4-0.3-0.7-0.2c-0.7,0.1-1.5,0.3-2.2,0.4c-0.8,0.2-1.7,0.3-2.5,0.5
			c-0.2,0-0.1,0.3,0.1,0.3c1.3-0.3,2.6-0.5,3.9-0.8c0.3-0.1,0.6-0.2,0.9-0.2c0.1,0,0.3,0.1,0.2,0.2c0,0.2-0.1,0.3-0.3,0.4
			c-0.6,0.4-1.1,0.7-1.7,1c-0.7,0.4-1.3,0.8-2,1.2c-0.1,0.1,0,0.2,0.1,0.3c0.2,0,0.4,0,0.6,0.1c0.2,0,0.2-0.3,0-0.3h-0.1
			c0.5-0.3,1.1-0.6,1.6-0.9l1-0.6c0.3-0.2,0.6-0.3,0.9-0.5C21,31,21.1,30.7,21,30.4z"/>
		<path class="st14" d="M23.7,32.6c-0.6,0.3-1.1,0.6-1.7,0.9c-0.3,0.1-0.5,0.3-0.8,0.4c-0.3,0.1-0.5,0.3-0.8,0.4
			c-0.2,0.1-0.2,0.3-0.1,0.5c0.2,0.2,0.4,0.2,0.6,0.1c0.6,0,1.2-0.1,1.8-0.1c0.2,0,0.2-0.3,0-0.3c-0.5,0-1,0.1-1.5,0.1
			c-0.1,0-0.3,0-0.4,0s-0.3,0.1-0.4,0s0.1-0.2,0.2-0.2c0.1-0.1,0.2-0.1,0.3-0.2c0.9-0.5,1.8-1,2.7-1.5C24,32.8,23.8,32.6,23.7,32.6z
			"/>
	</g>
	<g>
		<path class="st13" d="M10.3,4.3c0.8-1.6,2-2.7,3.3-3.5c0.1-0.1,0.3-0.2,0.4-0.2l0,0c0.3-0.2,0.6-0.3,0.7-0.2
			c0,0.1,0.1,0.1,0.1,0.2c0,0.3-0.6,0.6-0.7,0.7c-0.7,0.4-1.5,0.8-2,1.5c-0.3,0.4-0.6,1-0.7,1.6c-0.1,0.7-0.2,1.3-0.2,2
			c0,0.1,0,0.2,0,0.3c0,0.7,0.1,1.3,0,2c0,0.4-0.1,1-0.5,1.2c-0.1,0-0.1,0.1-0.2,0.1c-0.5,0-0.8-0.4-1-0.8C9,7.7,9.6,5.6,10.3,4.3z"
			/>
		<path class="st15" d="M5.4,18.5c0.6,1.2,1.4,3.2,1.4,3.2l0,0c-0.1,0-0.3-0.1-0.4-0.2c-0.7-0.2-1.3-0.4-2-0.6l0,0
			c0-0.1-0.3-0.9-0.4-1.4c0.2-0.6,0.5-1.2,0.9-1.6c0,0,0.1-0.1,0.2-0.2C5.1,17.8,5.2,18.1,5.4,18.5L5.4,18.5z"/>
		<path class="st16" d="M12.2,7c0.2,0.7,0,1.6-0.2,2.3c-0.1,0.5-0.4,0.9-0.9,0.9c-0.3,0-0.5-0.1-0.7-0.3c0.1,0,0.1,0,0.2-0.1
			C11,9.6,11.1,9,11.1,8.6c0.1-0.7,0-1.3,0-2c0-0.1,0-0.2,0-0.3C11.7,6.2,12.1,6.3,12.2,7z"/>
		<path class="st15" d="M2.7,16.7l-0.4-0.9L3.4,16C3.4,16,3.1,16.1,2.7,16.7z"/>
		<path class="st17" d="M19.5,12.4c0,1.9-0.4,3.9-1,5.7c-0.3,0.9-0.7,1.8-1.1,2.6c-0.4,0.8-0.9,1.6-1.4,2.4
			c-0.4,0.6-0.7,1.2-0.9,1.9c-0.2-1.8-0.9-3.5-1.6-5c-1.3-2.7-2.9-5.5-2.8-8.7c0-0.4,0-0.8,0.1-1.1c0-0.2-0.2-0.2-0.2-0.1
			c-0.5,3,0.7,5.9,2,8.5c1,2.2,2.2,4.6,2.3,7.1c0,0.1,0,0.1-0.1,0.2c0,0.1,0,0.1,0.1,0.2c0,0.4,0,0.7-0.1,1.1
			c-0.3,2.4-1.9,4.4-3.9,5.2c-1.9,0.8-4.6,0.3-5.5-1.9c-0.5-1.3-0.4-2.7-0.2-4.1c0.2-1.4,0.4-2.8,0.2-4.2c-0.1-0.3-0.2-0.7-0.3-1
			c-0.1-0.2-0.3,0-0.2,0.1c0.5,1.4,0.3,3,0.1,4.4c-0.2,1.4-0.4,2.8,0,4.1C5.4,31,6.1,32,7.1,32.5s2.1,0.6,3.1,0.4
			c2.1-0.5,3.9-2.2,4.6-4.5c0.3-0.9,0.4-1.8,0.3-2.8c0.5-1.7,1.6-3.1,2.4-4.7c0.9-1.7,1.5-3.5,1.9-5.4c0.2-1.1,0.3-2.2,0.3-3.2
			C19.8,12.2,19.6,12.2,19.5,12.4z"/>
	</g>
	<g>
		<path class="st13" d="M21.5,73.5c-0.3,0.2-0.5,0.4-0.7,0.6c-0.4,0.3-0.3,0.2-0.3,0.7c0.1,0.7,0.5,1.4,0.7,2c0,0.1,0.1,0.3,0.1,0.4
			l0.1,7.1c-0.6-0.1-1.2-0.3-1.8-0.3c-0.3,0-1.3-0.1-1.5,0.2c0-0.3,0-0.5-0.1-0.7c-0.3-2.3-0.5-4.6-0.8-6.9
			c-0.2-2.5-0.5-5.1-0.8-7.6c0.9,0.1,1.7,0,2.6-0.2h0.1c0,0,0,0.1,0.1,0.1c0.7,1.3,1.3,2.6,1.9,4C21.3,73,21.4,73.3,21.5,73.5z"/>
		<path class="st13" d="M19.3,68.7c-0.9-1.6-1.8-3.2-2.8-4.7c1.4-0.4,2.7-0.9,3.9-1.9c0.3-0.2,0.8-0.6,1.1-1
			c1.4,1.6,1.9,3.6,2.3,5.7c0.4,1.8,0.9,3.7,1.6,5.4h0.1c-0.2,1-1.2,2-1.7,2.5c-0.4-0.5-1.2-1.5-1.8-1.4c-0.1,0-0.3,0.1-0.5,0.3
			c-0.1-0.2-0.2-0.5-0.3-0.7c-0.6-1.4-1.2-2.7-1.9-4C19.3,68.8,19.3,68.7,19.3,68.7z"/>
		<path class="st0" d="M23.8,74.7c0.4-0.5,1.4-1.5,1.7-2.5c0-0.1,0-0.2,0-0.3c0.2,0,0.9,0.3,1,0.6c0.3,0.5,0.2,0.9,0.1,1.5
			c-0.4,1.7-1,3.4-1.7,5.1c-0.3,0.8-0.7,1.6-1.1,2.4c-0.3,0.5-0.8,1.8-1.3,1.9c-1.1,0.2-0.7-3-0.7-3.5c0-0.9-0.1-1.8-0.3-2.6
			c0-0.1-0.1-0.3-0.1-0.4c-0.2-0.6-0.6-1.4-0.7-2c-0.1-0.5-0.2-0.4,0.3-0.7c0.2-0.1,0.4-0.4,0.7-0.6c0.2-0.1,0.3-0.2,0.5-0.3
			C22.5,73.2,23.4,74.2,23.8,74.7z"/>
		<path class="st0" d="M18.1,84.2c0.2-0.3,1.3-0.2,1.5-0.2c0.6,0,1.2,0.2,1.8,0.3c0.4,1.1,0.3,3.6,0.5,4.9c0.1,0.7,0.3,1.7,0.2,2.5
			c-0.2,0.2-0.8,0.2-1,0.2c-1.3,0.2-2.5,0.2-3.8,0.2c0.2-0.9,0.7-1.7,0.8-2.7c0.2-1.4,0.4-2.7,0.1-4.1C18.1,84.9,18,84.4,18.1,84.2
			C18.1,84.3,18.1,84.2,18.1,84.2z"/>
		<path class="st11" d="M22.1,91.7c0,0.2-0.1,0.5-0.1,0.7c-0.2,0.7-0.6,0.7-1.2,0.8c-0.9,0.2-4,1.1-3.5-0.9c0-0.1,0-0.1,0-0.2
			c1.3,0.1,2.5,0,3.8-0.2C21.3,91.9,21.9,91.9,22.1,91.7z"/>
		<path class="st18" d="M18,64.6c-0.3-0.5-0.5-0.9-0.8-1.4c-0.1-0.1-0.3,0-0.2,0.1c0.3,0.5,0.5,0.9,0.8,1.4
			C17.9,64.9,18.1,64.8,18,64.6z"/>
		<path class="st18" d="M19.4,64c-0.2-0.5-0.5-1-0.7-1.6c-0.1-0.2-0.3,0-0.2,0.1c0.2,0.5,0.5,1,0.7,1.6C19.2,64.3,19.4,64.1,19.4,64
			z"/>
		<path class="st18" d="M20.5,63.3c-0.3-0.4-0.6-0.9-0.8-1.5c0-0.1-0.1-0.1-0.2-0.1s-0.1,0.1,0,0.2c0.2,0.5,0.5,1.1,0.8,1.5
			c0,0.1,0.1,0,0.2,0C20.6,63.5,20.5,63.4,20.5,63.3z"/>
		<path class="st18" d="M21.3,62.6c-0.2-0.4-0.4-0.8-0.6-1.2c-0.1-0.2-0.3,0-0.2,0.1c0.2,0.4,0.4,0.8,0.6,1.2
			C21.2,62.9,21.4,62.8,21.3,62.6z"/>
		<path class="st18" d="M17.2,68.5c0-0.1-0.1-0.1-0.1-0.1c-0.1,0-0.1,0.1-0.1,0.1c0,0.4,0.1,0.8,0.1,1.2c0,0.1,0.1,0.1,0.1,0.1
			c0.1,0,0.1-0.1,0.1-0.1C17.3,69.2,17.3,68.9,17.2,68.5z"/>
		<path class="st18" d="M18.1,68.3c0-0.1-0.1-0.1-0.1-0.1c-0.1,0-0.1,0.1-0.1,0.1c0.1,0.5,0.1,1,0.2,1.5c0,0.1,0.1,0.1,0.1,0.1
			c0.1,0,0.1-0.1,0.1-0.1C18.2,69.2,18.2,68.8,18.1,68.3z"/>
		<path class="st18" d="M19.2,69.6c-0.1-0.4-0.1-0.8-0.2-1.2c0-0.1-0.1-0.1-0.2-0.1s-0.1,0.1-0.1,0.2c0.1,0.4,0.1,0.8,0.2,1.2
			c0,0.1,0.1,0.1,0.2,0.1C19.2,69.8,19.3,69.7,19.2,69.6z"/>
		<path class="st18" d="M26.5,72.7c-0.3,1.6-0.6,3.2-1.1,4.7s-1,3-1.8,4.3c-0.2,0.4-0.4,0.7-0.7,1.1c-0.1,0.2-0.2,0.3-0.4,0.4
			c-0.1,0.1-0.3,0.1-0.4-0.1s-0.3,0-0.2,0.1c0.1,0.3,0.4,0.3,0.7,0.2c0.3-0.1,0.5-0.5,0.7-0.7c0.5-0.7,0.8-1.4,1.2-2.2
			c0.7-1.6,1.2-3.2,1.7-4.9c0.2-1,0.5-1.9,0.6-2.9C26.8,72.6,26.6,72.6,26.5,72.7z"/>
		<path class="st18" d="M22.9,80.6c-0.6-0.1-1.1,0-1.6,0.4c-0.1,0-0.1,0.1,0,0.2c0,0.1,0.1,0.1,0.2,0.1c0.4-0.3,0.9-0.5,1.4-0.4
			C23,80.9,23.1,80.7,22.9,80.6z"/>
		<path class="st18" d="M22.9,79.6c-0.3,0-0.6,0-1,0c-0.2,0-0.3,0.1-0.5,0.1c-0.1,0.1-0.3,0.2-0.2,0.4c0.1,0.1,0.2,0.1,0.2-0.1l0,0
			l0,0c0,0,0,0,0.1,0s0.1,0,0.2-0.1c0.1,0,0.2-0.1,0.4-0.1c0.3,0,0.5,0,0.8,0C23.1,79.8,23.1,79.6,22.9,79.6z"/>
		<path class="st18" d="M22.7,78.7c-0.5-0.1-1-0.1-1.5,0.1c-0.2,0.1-0.1,0.3,0.1,0.3c0.4-0.1,0.9-0.2,1.4-0.1c0.1,0,0.1,0,0.2-0.1
			C22.8,78.8,22.7,78.7,22.7,78.7z"/>
		<path class="st18" d="M23.2,76.5c-0.1-0.3-0.4-0.3-0.6-0.2c-0.3,0.1-0.5,0.4-0.7,0.7c-0.2,0.2-0.3,0.5-0.3,0.8l0,0
			c-0.2-0.2-0.4-0.3-0.7-0.4c-0.2-0.1-0.5-0.1-0.8,0c-0.2,0.1-0.2,0.4-0.1,0.5c0.4,0.6,1,0.5,1.6,0.3c0,0,0,0,0.1,0c0,0,0.1,0,0.2,0
			c0.5-0.1,1-0.5,1.3-1C23.2,77,23.3,76.7,23.2,76.5z M20.7,78.1c-0.1,0-0.2-0.1-0.3-0.2c0,0-0.1-0.1-0.1-0.2c0,0,0,0,0-0.1l0,0h0.1
			c0.3,0,0.6,0.1,0.8,0.2c0.1,0.1,0.2,0.1,0.2,0.2C21.2,78.1,20.9,78.2,20.7,78.1z M22.9,77.2c-0.1,0.2-0.3,0.4-0.6,0.6
			c-0.1,0.1-0.2,0.1-0.4,0.2h-0.1c0-0.3,0.1-0.6,0.3-0.8c0.2-0.2,0.4-0.5,0.6-0.6C23.2,76.5,23,77,22.9,77.2z"/>
		<path class="st18" d="M22,92.2c0-0.2-0.3-0.1-0.2,0.1c0.1,0.5-0.5,0.7-0.8,0.8c-0.4,0.1-0.9,0.2-1.4,0.2c-0.4,0-0.9,0.1-1.3,0.1
			s-0.8-0.2-0.9-0.7c0-0.2-0.3-0.1-0.2,0.1c0.1,0.5,0.5,0.8,0.9,0.8c0.5,0.1,1.1,0,1.7,0c0.5-0.1,1.1-0.1,1.6-0.3
			C21.7,93.1,22.1,92.7,22,92.2z"/>
		<path class="st18" d="M20.8,90.7c-0.3-0.1-0.6-0.2-0.9-0.3c0.1-0.1,0.3-0.2,0.4-0.3c0.2-0.1,0.3-0.3,0.5-0.3s0.1-0.3-0.1-0.3
			s-0.4,0.2-0.5,0.3c-0.2,0.1-0.4,0.3-0.5,0.4c0,0,0,0-0.1,0.1c-0.1,0-0.2,0-0.2-0.1c-0.2,0-0.4-0.1-0.7-0.1c-0.2,0-0.4,0-0.5,0.2
			s0.1,0.3,0.2,0.1c0-0.1,0.2-0.1,0.3-0.1c0.1,0,0.2,0,0.3,0c0.1,0,0.3,0,0.4,0.1c-0.2,0.2-0.5,0.4-0.7,0.6
			c-0.1,0.1,0.1,0.3,0.2,0.2c0.3-0.3,0.6-0.5,0.9-0.8C20.2,90.5,20.5,90.6,20.8,90.7C20.9,91,21,90.7,20.8,90.7z"/>
		<path class="st18" d="M20.8,89c-0.3-0.1-0.6-0.2-0.9-0.2c0.1-0.1,0.2-0.2,0.3-0.2c0.2-0.1,0.3-0.3,0.5-0.3s0.1-0.3-0.1-0.3
			s-0.4,0.2-0.5,0.3c-0.2,0.1-0.4,0.3-0.5,0.4l0,0l0,0c-0.2-0.1-0.4-0.1-0.6-0.2c-0.1,0-0.3-0.1-0.4,0.1s0.1,0.3,0.2,0.1l0,0h0.1
			c0.1,0,0.2,0,0.3,0.1h0.1c-0.2,0.2-0.5,0.4-0.7,0.6c-0.1,0.1,0,0.3,0.2,0.2c0.3-0.2,0.6-0.5,0.9-0.7c0,0,0,0,0.1,0
			c0.3,0.1,0.7,0.2,1,0.3C20.9,89.3,20.9,89,20.8,89z"/>
		<path class="st18" d="M20.7,87.4c-0.3-0.1-0.7-0.1-1-0.2c0.1-0.1,0.3-0.2,0.4-0.3c0.1-0.1,0.3-0.2,0.4-0.2c0.2,0,0.2-0.3,0-0.3
			c-0.4,0-0.6,0.4-0.9,0.6c-0.1,0.1-0.1,0.1-0.2,0.2c-0.2-0.1-0.5-0.2-0.7-0.1c-0.2,0-0.1,0.3,0.1,0.3c0.1,0,0.3,0,0.4,0.1
			c-0.2,0.1-0.3,0.2-0.5,0.3c-0.1,0.1,0,0.3,0.1,0.2c0.2-0.1,0.4-0.3,0.7-0.4c0.1,0,0.1,0.1,0.2,0.1c0.3,0.1,0.6,0.2,1,0.2
			C20.8,87.7,20.9,87.4,20.7,87.4z"/>
		<path class="st18" d="M20.8,84.4c-0.2,0-0.5,0.2-0.7,0.4c-0.2,0.2-0.4,0.4-0.5,0.7l0,0c-0.3-0.3-0.7-0.5-1.1-0.4
			c-0.2,0-0.4,0.1-0.6,0.2c-0.2,0.2-0.1,0.4,0.1,0.5c0.2,0.2,0.4,0.2,0.7,0.2c0.3,0,0.6,0,0.9-0.1h0.1c0.1,0,0.3,0,0.4-0.1
			c0.2-0.1,0.5-0.3,0.7-0.4s0.4-0.3,0.4-0.6C21.2,84.6,21,84.4,20.8,84.4z M18.7,85.8c-0.1,0-0.3,0-0.4-0.1c0,0-0.1-0.1-0.2-0.1
			c-0.1-0.1,0-0.1,0.1-0.2c0.4-0.2,0.9,0,1.2,0.3C19.2,85.8,19,85.8,18.7,85.8z M20.4,85.4c-0.1,0.1-0.2,0.1-0.3,0.2
			c0,0-0.1,0-0.1,0.1c0.1-0.2,0.2-0.4,0.4-0.6c0.1-0.1,0.5-0.4,0.6-0.3C21.1,84.9,20.5,85.3,20.4,85.4z"/>
	</g>
	<g>
		<path class="st2" d="M19.2,8.6c0-0.2-0.1-0.4-0.1-0.6c-0.1-0.8-0.3-1.6-0.4-2.4c0-0.2-0.3-0.1-0.2,0.1c0.1,0.7,0.2,1.3,0.3,2
			c0,0.2,0.1,0.4,0.1,0.5c0,0.2,0.1,0.3,0.1,0.5c0,0.1,0,0.1-0.1,0.2c-0.1,0-0.1,0.1-0.2,0.1c-0.2,0-0.3,0.1-0.5,0.1s-0.2,0.3,0,0.3
			s0.3-0.1,0.5-0.1c0.1,0,0.3-0.1,0.4-0.2C19.2,8.9,19.2,8.8,19.2,8.6z"/>
		<path class="st0" d="M16.3,6c-0.1-0.1-0.2-0.1-0.2-0.1c-0.1,0-0.2,0.1-0.2,0.2c-0.1,0.2-0.1,0.4-0.1,0.6c0,0.1,0,0.2,0.1,0.3
			c0.1,0.2,0.3,0.3,0.5,0.2c0.2-0.1,0.2-0.4,0.2-0.6C16.6,6.3,16.5,6.1,16.3,6z"/>
		<path class="st0" d="M20,6.3L20,6.3c0-0.1,0-0.2-0.1-0.3c0-0.1-0.1-0.2-0.2-0.3c-0.1,0-0.2,0-0.3,0.1c-0.1,0.1-0.1,0.2-0.1,0.3
			c0,0.1,0,0.2,0,0.3c0.1,0.2,0.2,0.5,0.5,0.4C19.9,6.7,20,6.6,20,6.5C20,6.6,20,6.4,20,6.3z"/>
		<path class="st0" d="M16.7,5c0-0.1-0.1-0.2-0.2-0.2s-0.3,0-0.4,0s-0.2,0.1-0.2,0.1c-0.2,0.1-0.5,0.3-0.6,0.6c0,0.1,0,0.2,0,0.3
			c0,0.1,0.1,0.1,0.2,0.1c0.1,0,0.1-0.1,0.2-0.1c0.1-0.1,0.1-0.1,0.2-0.2c0.1-0.1,0.2-0.2,0.3-0.2c0.1,0,0.3-0.1,0.4-0.2
			C16.7,5.2,16.7,5.1,16.7,5z"/>
		<path class="st0" d="M20.4,5.1c0-0.1-0.1-0.1-0.1-0.2c-0.1-0.1-0.2-0.2-0.3-0.2c-0.1-0.1-0.2-0.1-0.4-0.1c-0.1,0-0.1,0-0.2,0
			s-0.3,0.1-0.3,0.2s0,0.2,0,0.2c0,0.1,0.1,0.1,0.2,0.1s0.2,0,0.4,0c0.1,0,0.2,0,0.3,0.1c0.1,0.1,0.2,0.2,0.3,0.1
			C20.4,5.2,20.4,5.1,20.4,5.1z"/>
		<path class="st16" d="M19.8,10.4c-0.2,0.6-0.8,0.9-1.3,1s-1.4-0.1-1.4-0.8c0-0.3,0.2-0.5,0.5-0.6c0.1,0,0.1,0,0.2,0
			c0.3-0.1,0.6-0.1,0.9-0.2c0.3-0.1,0.6-0.2,0.9,0C19.7,9.8,19.8,10,19.8,10.4z"/>
		<g>
			<path class="st3" d="M15.8,9.2L15.8,9.2L15.8,9.2z"/>
		</g>
		<path class="st3" d="M16.6,8.8c0.1,0.5-0.1,1.2-0.6,1.4c-0.4,0.1-0.9-0.2-1.2-0.6c-0.1-0.2-0.2-0.4-0.3-0.6c0-0.1,0-0.3-0.1-0.4
			c0-0.1,0-0.2,0.1-0.3c0.1-0.2,0.2-0.4,0.3-0.5c0.3-0.1,0.6-0.1,0.8,0s0.5,0.2,0.7,0.4C16.5,8.3,16.6,8.5,16.6,8.8z"/>
	</g>
</g>
</svg>
