<?xml version="1.0" encoding="utf-8"?>
<!-- Generator: Adobe Illustrator 23.1.0, SVG Export Plug-In . SVG Version: 6.00 Build 0)  -->
<svg version="1.1" id="Layer_1" xmlns="http://www.w3.org/2000/svg" xmlns:xlink="http://www.w3.org/1999/xlink" x="0px" y="0px"
	 viewBox="0 0 117 233" style="enable-background:new 0 0 117 233;" xml:space="preserve">
<style type="text/css">
	.st0{fill:#2A2E6F;}
	.st1{fill:#FFA454;}
	.st2{fill:#FFB86C;}
	.st3{fill:#101749;}
	.st4{fill:#6776D1;}
	.st5{fill:#EE4350;}
	.st6{fill:#C14053;}
	.st7{fill:#FFEEB9;}
	.st8{fill:#E0E0E0;}
	.st9{fill:#FF9638;}
	.st10{fill:#FFFFFF;}
</style>
<g>
	<path class="st0" d="M57.6,24c0,0,0,0.1,0,0.2c-1.6,3.8-5.3,6.5-9.3,7.2c-0.4,0.1-0.8,0.2-1.3,0.2c-1.4,0-2.8-1-3.7-2.1
		c-0.9-1.1-1.6-2.7-3-3.4c-1.5-0.8-3.4-0.3-5-0.4c-1.2,0-2.3-0.2-3.2-0.6c-1.1-0.4-2-1.1-2.8-2.3c-1.2-1.8-1-3.6,0.4-5.3
		c0.6-0.8,1.5-1.3,2.2-2.1c0.5-0.5,0.7-1.1,1-1.7c0.9-1.7,2.4-2.5,4.3-2.7c1.2-0.1,2.4,0,3.5,0.3c0.9,0.2,1.7,0.6,2.7,0.6h0.2
		c2.6-0.1,4.9-2.2,7.6-1.6c1.8,0.4,2.9,1.9,3.5,3.5c0.3,0.8,0.4,1.8,0.9,2.6c0.6,0.9,1.6,1.5,2.2,2.4C59,20.6,58.5,22.2,57.6,24z"/>
	<g>
		<path class="st1" d="M23.1,86.4c0.2,0.6,0.5,1.3,0.8,1.9c-0.9-0.3-1.9-0.5-2.8-0.8c-0.1-0.1-0.2-0.3-0.3-0.6c-0.2-1-0.4-3.3,1-2.6
			C22.6,84.7,22.9,85.7,23.1,86.4z"/>
		<path class="st1" d="M35.5,83.2c-0.2,0.9-0.4,1.8-0.8,2.7c-0.7,1.8-1.2,3.5-1.5,5.2c-0.3,0.6-1.1,1.2-1.5,1.6
			c-0.9,0.9-1.8,1.9-2.9,2.7c0.4-0.8,0.5-1.7,0.4-2.6c-0.3-2.1-1.6-3.2-3.3-3.9c1.3-2.4,2.5-4.5,3.7-7.4
			C31.5,82.4,33.8,82.8,35.5,83.2z"/>
		<path class="st2" d="M25.8,89c1.7,0.7,3,1.8,3.3,3.9c0.1,0.9,0,1.8-0.4,2.6c-0.5,1.2-1.5,2.2-2.7,2.7c-2.4,1.2-6.3,0.7-8.4-1
			c-1.3-1.1-2.1-2.7-2.1-4.4c0-3,2.6-4,4.8-5.5c0.2,0.1,0.5,0.2,0.8,0.3c0.9,0.3,1.9,0.5,2.8,0.8C24.6,88.5,25.3,88.7,25.8,89z"/>
	</g>
	<path class="st2" d="M88.5,31.1c-0.7-0.5-1.2-1.3-1.8-1.8c-1.5-1.6-2.9-3.2-4.3-5c-3.2-4.2-6.2-8.3-10.1-11.9
		c-0.7,0.5-2.1,0.6-2.9,0.5c-3.5-0.3-4.5-4.3-4.9-7.2c-0.2-1.2-0.2-2.7,0.7-3.6c1-1.1,3.6-1.9,5.1-2.1c1.4-0.1,2.3,0.4,2.9,1.6
		c0.8,1.7,1.6,4.1,2.4,5.8v0c0.8,0.5,1.6,0.9,2.4,1.4c4.4,2.6,8.4,5.6,12.6,8.4c3.5,2.3,7.1,4.8,10.3,7.5c1.3,1.1,2.9,2.5,3.8,4.1
		c0.3,0.6,0.4,1.1,0.4,1.6v0c-1.9,6.5-7.6,12.1-12.3,16.6c-1.8,1.8-3.6,3.5-5.5,5.2L87,52.3c-0.4-1-0.8-2-1.2-2.9
		c-1.6-4.3-3.6-8.1-6.4-11.7c1.8-1.5,3.8-2.7,5.7-4.1c1-0.7,2.3-1.4,3.1-2.4L88.5,31.1z"/>
	<path class="st2" d="M45.8,45.2c-0.5,0.3-1.6,0.5-2.1,0.6c-1.6,0.2-3,0-4.1-1.1c-2.3-2.4-3.5-6-4.6-9.1c-1.2-3.4-2.3-6.9-3-10.4
		c0.9,0.4,2,0.5,3.2,0.6c1.6,0.1,3.6-0.4,5,0.4c1.3,0.7,2.1,2.3,3,3.4c0.9,1.1,2.3,2,3.7,2.1c0.8,0,1.7-0.3,2.4-0.7
		c0.3,0.9,0.9,1.7,1.7,2.3c1.4,1.1,3.1,1.4,4.7,0.9c0.8,1.3,1.6,2.6,2.4,4c1.3,2.2,2.3,4.7,3.8,6.8C62,44.9,62,45,62,45
		c-0.3,0.9-1.7,1.9-2.4,2.5c-2.9,2.8-5.8,5.7-8.8,8.3c-0.9,0.7-2.1,1.8-2.8,0.4C47.2,55,47,53,46.9,51.6c-0.1-0.9-0.3-1.8-0.4-2.8
		C46.3,47.7,46.1,46.4,45.8,45.2z"/>
	<g>
		<path class="st0" d="M45.1,187.1c1.5-4.7,2.7-9.4,3.4-14.1c0.7-4.8-0.7-9.7-1.3-14.4c-0.7-5.6-1.1-11.2-1.7-16.9
			c-0.2-2.1-0.1-6.8-1.8-8.5c-1.6-1.6-5.7-0.6-8.5-0.3c-0.6-4.1-1.2-8.2-1.6-12.3c0.3,0,0.6,0.1,0.9,0.1c4.5,0.5,9.1,0.6,13.5,0.8
			c4.8,0.2,9.7-0.2,14.4-1.2c2.8-0.6,5.6-0.7,8.3-1.6c1.1-0.4,2-0.7,2.6-1.2c0.5,8.5-0.9,16.6-1.8,25c-0.7,6.4-1.1,13-2.4,19.3
			c-1.5,7.9-3.3,15.7-6.2,23.3c0,0,0,0,0,0v0c-2.9,7.8-6.9,14.8-10.4,22.3c-0.3,0.7-0.7,1.6-1,2.4c-0.8,1.9-1.7,4-2.8,5.3l-0.1,0.1
			c-0.6-0.4-1.3-0.9-1.9-1.3c-2.4-1.8-4.8-3.7-7.3-5.2c-0.5-0.3-1-0.6-1.5-0.9C40.2,201.3,42.9,194.2,45.1,187.1z"/>
		<path class="st3" d="M64.7,217.9c-2.9,1.2-7.4,1.9-9.3,2.3c0,0,0,0-0.1,0c-2.3,0.5-2.1,0.8-2.9-1.2l-1-9c0.4-0.9,0.7-1.7,1-2.4
			c3.5-7.5,7.5-14.6,10.4-22.3c0.7,5.9,1.5,13.8,2.3,19.4c0.4,2.6,0.7,5.1,1.3,7.6c0.2,0.9,1.1,2.4,0.9,3.2
			C67.2,216.5,66.1,217.3,64.7,217.9z"/>
		<path class="st3" d="M47.2,158.6c0.6,4.8,2,9.6,1.3,14.4c-0.7,4.7-1.9,9.4-3.4,14.1c-0.8-7-2.9-14.1-4.2-21.1
			c-2-11.1-4.1-22-5.8-33.1c2.8-0.3,6.9-1.3,8.5,0.3c1.7,1.7,1.6,6.4,1.8,8.5C46.1,147.3,46.4,153,47.2,158.6z"/>
		<path class="st4" d="M69.9,119.5c-0.2,3.8-0.6,7.5-1,11.3c0,0,0,0-0.1-0.1c-2.8-2.6-4.9-6-6-9.7c-0.1-0.4-0.7-0.2-0.6,0.2
			c1.1,3.8,3.3,7.3,6.2,10c0.2,0.1,0.4,0.1,0.5,0c-0.3,2.4-0.6,4.8-0.9,7.1c-0.9,6.2-2,12.3-3.3,18.4c-1.3,6.1-2.9,12.2-4.7,18.2
			c-1.8,6-3.8,11.9-6.1,17.7c-2.3,5.8-4.7,11.6-7.4,17.3c-0.3,0.7-0.7,1.4-1,2.1c-0.2,0.4,0.4,0.7,0.6,0.3
			c2.8-5.6,5.3-11.4,7.6-17.2c2.3-5.8,4.4-11.8,6.3-17.8c1.9-6,3.5-12.1,4.9-18.2c1.4-6.1,2.6-12.3,3.5-18.5
			c0.9-6.2,1.6-12.4,2.1-18.7c0.1-0.8,0.1-1.6,0.2-2.4C70.5,119.1,69.9,119.1,69.9,119.5z"/>
	</g>
	<g>
		<path class="st5" d="M39,50.7c1.7-1.5,5-1.8,7.5-1.8c0.1,0.9,0.3,1.8,0.4,2.8C47,53,47.2,55,48,56.2c0.8,1.3,2,0.3,2.8-0.4
			c3.1-2.6,5.9-5.5,8.8-8.3c0.7-0.6,2.1-1.6,2.4-2.5c0-0.1-0.1-0.1-0.1-0.2c1.4-2,2-2.5,4.6-2.6c2.1-0.1,2.9-0.8,4.7-1.7
			c1.5-0.7,3.2-0.6,4.6-1.3c1.2-0.6,2.1-1.5,3.2-2.2l0.1,0.2c0.1,0.1,0.2,0.3,0.3,0.4c2.8,3.6,4.8,7.5,6.4,11.7
			c0.3,0.9,0.8,1.9,1.2,2.9c0.2,0.5,0.4,1.1,0.4,1.6c-3.2,3.1-6.7,6.5-10.6,8.8c1,5.2,1.6,11.1,0.4,15.9c-1.1,4.1-2.3,8.2-1.8,12.5
			c0.4,3.5,1.7,6.5,1.4,10.1c-0.3,3.2-1.5,6.1-1.6,9.3c-0.1,3.6,0.2,5.7-1.9,7.1c-0.6,0.4-1.5,0.8-2.6,1.2c-2.7,0.9-5.5,1-8.3,1.6
			c-4.7,0.9-9.6,1.4-14.4,1.2c-4.5-0.2-9.1-0.3-13.5-0.8c-0.2,0-0.5-0.1-0.9-0.1c-1.6-0.1-3.9-0.4-4.5-1.6c-0.9-1.7,0.4-5.5,0.6-7.3
			c0.3-2.9,1.8-5.6,2.4-8.4c0.6-2.8,0.6-5.6,0.7-8.4c0.1-1.3,0.2-2.5,0.4-3.7c0.3-1.7,0.8-3.4,1.5-5.2c0.3-0.9,0.6-1.8,0.8-2.7
			c1.1-5.1,0.3-10.3,0.3-15.5c0-5.3-0.1-11.3,2.5-16.1C38.4,51.2,38.7,50.9,39,50.7z"/>
		<path class="st6" d="M29.5,81.6c-1-0.4-1.9-1-2.6-1.7c-1.1-1.3-0.7-2-0.2-3.7c1.6-6,3.2-12,4.7-18c1.3-5.1,2.9-6.4,7.6-7.6
			c-0.3,0.3-0.6,0.6-0.8,0.9c-2.6,4.8-2.5,10.8-2.5,16.1c0,5.2,0.8,10.5-0.3,15.5C33.8,82.8,31.5,82.4,29.5,81.6z"/>
		<path class="st7" d="M41.8,58.8c-0.7-0.5-1.3-0.9-2-1.4c-0.1-0.1-0.4,0-0.4,0.1c-0.1,0.2,0,0.3,0.1,0.4c0.7,0.5,1.3,0.9,2,1.4
			c0.1,0.1,0.4,0,0.4-0.1C42,59.1,41.9,58.9,41.8,58.8z"/>
		<path class="st7" d="M45.7,59.7c-0.1-0.1-0.4,0-0.4,0.1c-0.3,0.6-0.6,1.2-0.9,1.8c-0.1,0.1,0,0.4,0.1,0.4c0.1,0.1,0.4,0,0.4-0.1
			c0.3-0.6,0.6-1.2,0.9-1.8C45.9,59.9,45.9,59.7,45.7,59.7z"/>
		<path class="st7" d="M40.6,64.7c-0.2-0.6-0.5-1.1-0.7-1.7c-0.1-0.2-0.2-0.3-0.4-0.2c-0.1,0-0.3,0.2-0.2,0.4
			c0.2,0.6,0.5,1.1,0.7,1.7c0.1,0.2,0.2,0.3,0.4,0.2C40.5,65,40.6,64.8,40.6,64.7z"/>
		<path class="st7" d="M44.4,69.2c-0.4-0.5-0.8-1.1-1.1-1.6c-0.1-0.1-0.3-0.2-0.4-0.1c-0.1,0.1-0.2,0.3-0.1,0.4
			c0.4,0.5,0.8,1.1,1.1,1.6c0.1,0.1,0.3,0.2,0.4,0.1C44.4,69.5,44.5,69.3,44.4,69.2z"/>
		<path class="st7" d="M48.1,65.6c-0.1-0.2-0.2-0.3-0.4-0.2c-0.7,0.2-1.3,0.4-2,0.6c-0.2,0-0.3,0.2-0.2,0.4c0.1,0.2,0.2,0.3,0.4,0.2
			c0.7-0.2,1.3-0.4,2-0.6C48,66,48.1,65.8,48.1,65.6z"/>
		<path class="st7" d="M52.7,61.6c-0.4-0.7-0.9-1.4-1.3-2.1c-0.1-0.1-0.3-0.2-0.4-0.1c-0.1,0.1-0.2,0.3-0.1,0.4
			c0.4,0.7,0.9,1.4,1.3,2.1c0.1,0.1,0.3,0.2,0.4,0.1C52.7,62,52.8,61.8,52.7,61.6z"/>
		<path class="st7" d="M57.8,56.3c-0.6-0.1-1.2-0.2-1.8-0.2c-0.2,0-0.3,0.2-0.3,0.3c0,0.2,0.1,0.3,0.3,0.3c0.6,0.1,1.2,0.2,1.8,0.2
			c0.2,0,0.3-0.2,0.3-0.3C58.1,56.4,57.9,56.3,57.8,56.3z"/>
		<path class="st7" d="M61.5,52.2c0-0.2-0.1-0.3-0.3-0.3c-0.2,0-0.3,0.1-0.3,0.3l0.3,2.7c0,0.2,0.1,0.3,0.3,0.3
			c0.2,0,0.3-0.1,0.3-0.3L61.5,52.2z"/>
		<path class="st7" d="M59.7,61.2c-0.7-0.2-1.5-0.5-2.2-0.7c-0.2-0.1-0.3,0.1-0.4,0.2c0,0.2,0.1,0.3,0.2,0.4
			c0.7,0.2,1.5,0.5,2.2,0.7c0.2,0.1,0.3-0.1,0.4-0.2C60,61.4,59.8,61.3,59.7,61.2z"/>
		<path class="st7" d="M67.1,56.1c-0.2-0.6-0.3-1.2-0.5-1.8c0-0.2-0.2-0.3-0.4-0.2c-0.2,0.1-0.3,0.2-0.2,0.4
			c0.2,0.6,0.3,1.2,0.5,1.8c0,0.2,0.2,0.3,0.4,0.2C67,56.4,67.1,56.3,67.1,56.1z"/>
		<path class="st7" d="M69.1,49.4c-0.9-0.3-1.8-0.6-2.7-0.9c-0.2-0.1-0.3,0.1-0.4,0.2c0,0.2,0.1,0.3,0.2,0.4
			c0.9,0.3,1.8,0.6,2.7,0.9c0.2,0.1,0.3-0.1,0.4-0.2C69.4,49.6,69.3,49.4,69.1,49.4z"/>
		<path class="st7" d="M42.4,51.8c-0.2-0.1-0.3,0-0.4,0.1L41,53.6c-0.1,0.1,0,0.4,0.1,0.4c0.2,0.1,0.3,0,0.4-0.1l1.1-1.7
			C42.7,52.1,42.6,51.9,42.4,51.8z"/>
		<path class="st7" d="M51.3,72.2c-0.6-0.5-1.2-1.1-1.8-1.6c-0.1-0.1-0.3-0.1-0.5,0c-0.1,0.1-0.1,0.3,0,0.4c0.6,0.5,1.2,1.1,1.8,1.6
			c0.1,0.1,0.3,0.1,0.5,0C51.4,72.5,51.4,72.3,51.3,72.2z"/>
		<path class="st7" d="M46.3,73.2c-0.1-0.1-0.4,0-0.4,0.1c-0.4,0.8-0.8,1.7-1.2,2.5c-0.1,0.2,0,0.3,0.1,0.4c0.1,0.1,0.4,0,0.4-0.1
			c0.4-0.8,0.8-1.7,1.2-2.5C46.5,73.5,46.5,73.3,46.3,73.2z"/>
		<path class="st7" d="M40.8,71.8l-1.7-2.2c-0.1-0.1-0.3-0.1-0.5,0c-0.1,0.1-0.1,0.3,0,0.4c0.6,0.7,1.1,1.5,1.7,2.2
			c0.1,0.1,0.3,0.1,0.5,0C41,72.1,40.9,71.9,40.8,71.8z"/>
		<path class="st7" d="M40.1,74.6c-0.2-0.1-0.3,0-0.4,0.1c-0.6,0.9-1.2,1.8-1.8,2.7c-0.1,0.1,0,0.4,0.1,0.4c0.2,0.1,0.3,0,0.4-0.1
			c0.6-0.9,1.2-1.8,1.8-2.7C40.3,74.9,40.2,74.7,40.1,74.6z"/>
		<path class="st7" d="M44,80.6c-0.5-0.7-0.9-1.4-1.4-2.1c-0.1-0.1-0.3-0.2-0.4-0.1c-0.1,0.1-0.2,0.3-0.1,0.4
			c0.5,0.7,0.9,1.4,1.4,2.1c0.1,0.1,0.3,0.2,0.4,0.1C44,80.9,44.1,80.7,44,80.6z"/>
		<path class="st7" d="M40.2,82.1c-0.1-0.1-0.4,0-0.4,0.1c-0.3,0.6-0.6,1.1-0.9,1.7c-0.1,0.1,0,0.4,0.1,0.4c0.1,0.1,0.4,0,0.4-0.1
			c0.3-0.6,0.6-1.1,0.9-1.7C40.4,82.4,40.4,82.2,40.2,82.1z"/>
		<path class="st7" d="M38.4,88.6c-0.6-0.6-1.1-1.2-1.7-1.8c-0.1-0.1-0.3-0.1-0.5,0c-0.1,0.1-0.1,0.3,0,0.4c0.6,0.6,1.1,1.2,1.7,1.8
			c0.1,0.1,0.3,0.1,0.5,0C38.6,88.9,38.6,88.7,38.4,88.6z"/>
		<path class="st7" d="M44.4,87.5c-0.1-0.2-0.3-0.2-0.4-0.1c-0.7,0.3-1.5,0.7-2.2,1c-0.2,0.1-0.2,0.3-0.1,0.4
			c0.1,0.2,0.3,0.2,0.4,0.1c0.7-0.3,1.5-0.7,2.2-1C44.4,87.9,44.4,87.6,44.4,87.5z"/>
		<path class="st7" d="M47.6,83.8c-0.1-0.2-0.2-0.3-0.4-0.2c-0.6,0.1-1.2,0.2-1.8,0.3c-0.2,0-0.3,0.2-0.2,0.4
			c0.1,0.2,0.2,0.3,0.4,0.2c0.6-0.1,1.2-0.2,1.8-0.3C47.5,84.2,47.7,84,47.6,83.8z"/>
		<path class="st7" d="M51.2,79.9c-0.5-0.6-0.9-1.1-1.4-1.7c-0.1-0.1-0.3-0.1-0.5,0c-0.1,0.1-0.1,0.3,0,0.4c0.5,0.6,0.9,1.1,1.4,1.7
			c0.1,0.1,0.3,0.1,0.5,0C51.3,80.2,51.3,80.1,51.2,79.9z"/>
		<path class="st7" d="M47.4,77.1c-0.2,0-0.4,0.1-0.4,0.2c-0.2,0.7-0.3,1.4-0.5,2.1c0,0.2,0.1,0.4,0.2,0.4c0.2,0,0.4-0.1,0.4-0.2
			c0.2-0.7,0.3-1.4,0.5-2.1C47.6,77.3,47.6,77.1,47.4,77.1z"/>
		<path class="st7" d="M54.5,75.8c-0.8,0-1.6-0.1-2.4-0.1c-0.2,0-0.3,0.2-0.3,0.3c0,0.2,0.1,0.3,0.3,0.3c0.8,0,1.6,0.1,2.4,0.1
			c0.2,0,0.3-0.2,0.3-0.3C54.9,76,54.7,75.8,54.5,75.8z"/>
		<path class="st7" d="M56.2,72.1c-0.3-0.7-0.6-1.3-0.9-2C55.2,70,55,70,54.8,70c-0.2,0.1-0.2,0.3-0.1,0.4c0.3,0.7,0.6,1.3,0.9,2
			c0.1,0.2,0.3,0.2,0.4,0.1C56.2,72.4,56.2,72.3,56.2,72.1z"/>
		<path class="st7" d="M53.7,67.4c0-0.2-0.2-0.3-0.4-0.2c-0.8,0.3-1.7,0.5-2.5,0.8c-0.2,0.1-0.3,0.2-0.2,0.4c0,0.2,0.2,0.3,0.4,0.2
			c0.8-0.3,1.7-0.5,2.5-0.8C53.6,67.7,53.7,67.6,53.7,67.4z"/>
		<path class="st7" d="M57,65.1c-0.7-0.3-1.4-0.5-2.1-0.8c-0.2-0.1-0.4,0.1-0.4,0.2c0,0.2,0.1,0.3,0.2,0.4c0.7,0.3,1.4,0.5,2.1,0.8
			c0.2,0.1,0.4-0.1,0.4-0.2C57.3,65.3,57.2,65.2,57,65.1z"/>
		<path class="st7" d="M60.3,66.4c-0.1-0.1-0.4,0-0.4,0.1l-1,2.2c-0.1,0.2,0,0.3,0.1,0.4c0.1,0.1,0.4,0,0.4-0.1l1-2.2
			C60.4,66.7,60.4,66.5,60.3,66.4z"/>
		<path class="st7" d="M60.7,73.6c0-0.1-0.1-0.1-0.1-0.2c-0.5-0.3-0.9-0.7-1.4-1c-0.1,0-0.2-0.1-0.2,0c-0.1,0-0.2,0.1-0.2,0.1
			c0,0.1-0.1,0.2,0,0.2c0,0.1,0.1,0.1,0.1,0.2c0.5,0.3,0.9,0.7,1.4,1c0.1,0,0.2,0.1,0.2,0c0.1,0,0.2-0.1,0.2-0.1
			C60.7,73.7,60.7,73.7,60.7,73.6z"/>
		<path class="st7" d="M36.1,98.1c-0.7-0.5-1.3-0.9-2-1.4c-0.1-0.1-0.4,0-0.4,0.1c-0.1,0.2,0,0.3,0.1,0.4c0.7,0.5,1.3,0.9,2,1.4
			c0.1,0.1,0.4,0,0.4-0.1C36.3,98.4,36.2,98.2,36.1,98.1z"/>
		<path class="st7" d="M40,99c-0.1-0.1-0.4,0-0.4,0.1c-0.3,0.6-0.6,1.2-0.9,1.8c-0.1,0.1,0,0.4,0.1,0.4c0.1,0.1,0.4,0,0.4-0.1
			c0.3-0.6,0.6-1.2,0.9-1.8C40.2,99.2,40.2,99,40,99z"/>
		<path class="st7" d="M34.9,104c-0.2-0.6-0.5-1.1-0.7-1.7c-0.1-0.2-0.2-0.3-0.4-0.2c-0.1,0-0.3,0.2-0.2,0.4
			c0.2,0.6,0.5,1.1,0.7,1.7c0.1,0.2,0.2,0.3,0.4,0.2C34.8,104.3,34.9,104.1,34.9,104z"/>
		<path class="st7" d="M38.7,108.5c-0.4-0.5-0.8-1.1-1.1-1.6c-0.1-0.1-0.3-0.2-0.4-0.1c-0.1,0.1-0.2,0.3-0.1,0.4
			c0.4,0.5,0.8,1.1,1.1,1.6c0.1,0.1,0.3,0.2,0.4,0.1C38.7,108.8,38.8,108.6,38.7,108.5z"/>
		<path class="st7" d="M42.4,104.9c-0.1-0.2-0.2-0.3-0.4-0.2c-0.7,0.2-1.3,0.4-2,0.6c-0.2,0-0.3,0.2-0.2,0.4
			c0.1,0.2,0.2,0.3,0.4,0.2c0.7-0.2,1.3-0.4,2-0.6C42.3,105.3,42.4,105.1,42.4,104.9z"/>
		<path class="st7" d="M47,100.9c-0.4-0.7-0.9-1.4-1.3-2.1c-0.1-0.1-0.3-0.2-0.4-0.1c-0.1,0.1-0.2,0.3-0.1,0.4
			c0.4,0.7,0.9,1.4,1.3,2.1c0.1,0.1,0.3,0.2,0.4,0.1C47,101.3,47.1,101.1,47,100.9z"/>
		<path class="st7" d="M52.1,95.6c-0.6-0.1-1.2-0.2-1.8-0.2c-0.2,0-0.3,0.2-0.3,0.3c0,0.2,0.1,0.3,0.3,0.3c0.6,0.1,1.2,0.2,1.8,0.2
			c0.2,0,0.3-0.2,0.3-0.3C52.4,95.7,52.2,95.6,52.1,95.6z"/>
		<path class="st7" d="M55.8,91.5c0-0.2-0.1-0.3-0.3-0.3c-0.2,0-0.3,0.1-0.3,0.3l0.3,2.7c0,0.2,0.1,0.3,0.3,0.3
			c0.2,0,0.3-0.1,0.3-0.3L55.8,91.5z"/>
		<path class="st7" d="M54,100.5c-0.7-0.2-1.5-0.5-2.2-0.7c-0.2-0.1-0.3,0.1-0.4,0.2c0,0.2,0.1,0.3,0.2,0.4c0.7,0.2,1.5,0.5,2.2,0.7
			c0.2,0.1,0.3-0.1,0.4-0.2C54.3,100.7,54.1,100.6,54,100.5z"/>
		<path class="st7" d="M61.4,95.4c-0.2-0.6-0.3-1.2-0.5-1.8c0-0.2-0.2-0.3-0.4-0.2c-0.2,0.1-0.3,0.2-0.2,0.4
			c0.2,0.6,0.3,1.2,0.5,1.8c0,0.2,0.2,0.3,0.4,0.2C61.3,95.7,61.4,95.6,61.4,95.4z"/>
		<path class="st7" d="M63.4,88.7c-0.9-0.3-1.8-0.6-2.7-0.9c-0.2-0.1-0.3,0.1-0.4,0.2c0,0.2,0.1,0.3,0.2,0.4
			c0.9,0.3,1.8,0.6,2.7,0.9c0.2,0.1,0.3-0.1,0.4-0.2C63.7,88.9,63.6,88.7,63.4,88.7z"/>
		<path class="st7" d="M36.7,91.1c-0.2-0.1-0.3,0-0.4,0.1l-1.1,1.7c-0.1,0.1,0,0.4,0.1,0.4c0.2,0.1,0.3,0,0.4-0.1l1.1-1.7
			C37,91.4,36.9,91.2,36.7,91.1z"/>
		<path class="st7" d="M45.6,111.5c-0.6-0.5-1.2-1.1-1.8-1.6c-0.1-0.1-0.3-0.1-0.5,0c-0.1,0.1-0.1,0.3,0,0.4
			c0.6,0.5,1.2,1.1,1.8,1.6c0.1,0.1,0.3,0.1,0.5,0C45.7,111.8,45.7,111.6,45.6,111.5z"/>
		<path class="st7" d="M40.6,112.5c-0.1-0.1-0.4,0-0.4,0.1c-0.4,0.8-0.8,1.7-1.2,2.5c-0.1,0.2,0,0.3,0.1,0.4c0.1,0.1,0.4,0,0.4-0.1
			c0.4-0.8,0.8-1.7,1.2-2.5C40.8,112.8,40.8,112.6,40.6,112.5z"/>
		<path class="st7" d="M35.1,111.1l-1.7-2.2c-0.1-0.1-0.3-0.1-0.5,0c-0.1,0.1-0.1,0.3,0,0.4c0.6,0.7,1.1,1.5,1.7,2.2
			c0.1,0.1,0.3,0.1,0.5,0C35.3,111.4,35.2,111.2,35.1,111.1z"/>
		<path class="st7" d="M34.4,113.9c-0.2-0.1-0.3,0-0.4,0.1c-0.6,0.9-1.2,1.8-1.8,2.7c-0.1,0.1,0,0.4,0.1,0.4c0.2,0.1,0.3,0,0.4-0.1
			c0.6-0.9,1.2-1.8,1.8-2.7C34.6,114.2,34.5,114,34.4,113.9z"/>
		<path class="st7" d="M38.3,119.9c-0.5-0.7-0.9-1.4-1.4-2.1c-0.1-0.1-0.3-0.2-0.4-0.1c-0.1,0.1-0.2,0.3-0.1,0.4
			c0.5,0.7,0.9,1.4,1.4,2.1c0.1,0.1,0.3,0.2,0.4,0.1C38.3,120.2,38.4,120,38.3,119.9z"/>
		<path class="st7" d="M44,89.4c-0.1-0.1-0.4,0-0.4,0.1c-0.3,0.6-0.6,1.1-0.9,1.7c-0.1,0.1,0,0.4,0.1,0.4c0.1,0.1,0.4,0,0.4-0.1
			c0.3-0.6,0.6-1.1,0.9-1.7C44.2,89.7,44.1,89.5,44,89.4z"/>
		<path class="st7" d="M42.2,95.8c-0.6-0.6-1.1-1.2-1.7-1.8c-0.1-0.1-0.3-0.1-0.5,0c-0.1,0.1-0.1,0.3,0,0.4c0.6,0.6,1.1,1.2,1.7,1.8
			c0.1,0.1,0.3,0.1,0.5,0C42.3,96.1,42.3,95.9,42.2,95.8z"/>
		<path class="st7" d="M48.1,94.8c-0.1-0.2-0.3-0.2-0.4-0.1c-0.7,0.3-1.5,0.7-2.2,1c-0.2,0.1-0.2,0.3-0.1,0.4
			c0.1,0.2,0.3,0.2,0.4,0.1c0.7-0.3,1.5-0.7,2.2-1C48.2,95.1,48.2,94.9,48.1,94.8z"/>
		<path class="st7" d="M51.4,91.1c-0.1-0.2-0.2-0.3-0.4-0.2c-0.6,0.1-1.2,0.2-1.8,0.3c-0.2,0-0.3,0.2-0.2,0.4
			c0.1,0.2,0.2,0.3,0.4,0.2c0.6-0.1,1.2-0.2,1.8-0.3C51.3,91.5,51.4,91.2,51.4,91.1z"/>
		<path class="st7" d="M45.5,119.2c-0.5-0.6-0.9-1.1-1.4-1.7c-0.1-0.1-0.3-0.1-0.5,0c-0.1,0.1-0.1,0.3,0,0.4
			c0.5,0.6,0.9,1.1,1.4,1.7c0.1,0.1,0.3,0.1,0.5,0C45.6,119.5,45.6,119.4,45.5,119.2z"/>
		<path class="st7" d="M41.7,116.4c-0.2,0-0.4,0.1-0.4,0.2c-0.2,0.7-0.3,1.4-0.5,2.1c0,0.2,0.1,0.4,0.2,0.4c0.2,0,0.4-0.1,0.4-0.2
			c0.2-0.7,0.3-1.4,0.5-2.1C41.9,116.6,41.9,116.4,41.7,116.4z"/>
		<path class="st7" d="M48.8,115.1c-0.8,0-1.6-0.1-2.4-0.1c-0.2,0-0.3,0.2-0.3,0.3c0,0.2,0.1,0.3,0.3,0.3c0.8,0,1.6,0.1,2.4,0.1
			c0.2,0,0.3-0.2,0.3-0.3C49.2,115.3,49,115.1,48.8,115.1z"/>
		<path class="st7" d="M50.5,111.4c-0.3-0.7-0.6-1.3-0.9-2c-0.1-0.2-0.3-0.2-0.4-0.1c-0.2,0.1-0.2,0.3-0.1,0.4
			c0.3,0.7,0.6,1.3,0.9,2c0.1,0.2,0.3,0.2,0.4,0.1C50.5,111.7,50.5,111.6,50.5,111.4z"/>
		<path class="st7" d="M48,106.7c0-0.2-0.2-0.3-0.4-0.2c-0.8,0.3-1.7,0.5-2.5,0.8c-0.2,0.1-0.3,0.2-0.2,0.4c0,0.2,0.2,0.3,0.4,0.2
			c0.8-0.3,1.7-0.5,2.5-0.8C47.9,107,48,106.9,48,106.7z"/>
		<path class="st7" d="M51.3,104.4c-0.7-0.3-1.4-0.5-2.1-0.8c-0.2-0.1-0.4,0.1-0.4,0.2c0,0.2,0.1,0.3,0.2,0.4
			c0.7,0.3,1.4,0.5,2.1,0.8c0.2,0.1,0.4-0.1,0.4-0.2C51.6,104.6,51.5,104.5,51.3,104.4z"/>
		<path class="st7" d="M54.6,105.7c-0.1-0.1-0.4,0-0.4,0.1l-1,2.2c-0.1,0.2,0,0.3,0.1,0.4c0.1,0.1,0.4,0,0.4-0.1l1-2.2
			C54.7,106,54.7,105.8,54.6,105.7z"/>
		<path class="st7" d="M55,112.9c0-0.1-0.1-0.1-0.1-0.2c-0.5-0.3-0.9-0.7-1.4-1c-0.1,0-0.2-0.1-0.2,0c-0.1,0-0.2,0.1-0.2,0.1
			c0,0.1-0.1,0.2,0,0.2c0,0.1,0.1,0.1,0.1,0.2c0.5,0.3,0.9,0.7,1.4,1c0.1,0,0.2,0.1,0.2,0c0.1,0,0.2-0.1,0.2-0.1
			C55,113,55,113,55,112.9z"/>
		<path class="st7" d="M73.9,48.4c-0.7-0.5-1.3-0.9-2-1.4c-0.1-0.1-0.4,0-0.4,0.1c-0.1,0.2,0,0.3,0.1,0.4c0.7,0.5,1.3,0.9,2,1.4
			c0.1,0.1,0.4,0,0.4-0.1C74.1,48.7,74.1,48.5,73.9,48.4z"/>
		<path class="st7" d="M77.9,49.3c-0.1-0.1-0.4,0-0.4,0.1c-0.3,0.6-0.6,1.2-0.9,1.8c-0.1,0.1,0,0.4,0.1,0.4c0.1,0.1,0.4,0,0.4-0.1
			c0.3-0.6,0.6-1.2,0.9-1.8C78.1,49.6,78.1,49.4,77.9,49.3z"/>
		<path class="st7" d="M72.7,54.3c-0.2-0.6-0.5-1.1-0.7-1.7c-0.1-0.2-0.2-0.3-0.4-0.2c-0.1,0-0.3,0.2-0.2,0.4
			c0.2,0.6,0.5,1.1,0.7,1.7c0.1,0.2,0.2,0.3,0.4,0.2C72.6,54.6,72.8,54.4,72.7,54.3z"/>
		<path class="st7" d="M76.6,58.8c-0.4-0.5-0.8-1.1-1.1-1.6C75.4,57,75.2,57,75,57.1c-0.1,0.1-0.2,0.3-0.1,0.4
			c0.4,0.5,0.8,1.1,1.1,1.6c0.1,0.1,0.3,0.2,0.4,0.1C76.6,59.1,76.7,58.9,76.6,58.8z"/>
		<path class="st7" d="M80.3,55.2C80.2,55.1,80,55,79.9,55c-0.7,0.2-1.3,0.4-2,0.6c-0.2,0-0.3,0.2-0.2,0.4c0.1,0.2,0.2,0.3,0.4,0.2
			c0.7-0.2,1.3-0.4,2-0.6C80.2,55.6,80.3,55.4,80.3,55.2z"/>
		<path class="st7" d="M84.9,51.3c-0.4-0.7-0.9-1.4-1.3-2.1c-0.1-0.1-0.3-0.2-0.4-0.1c-0.1,0.1-0.2,0.3-0.1,0.4
			c0.4,0.7,0.9,1.4,1.3,2.1c0.1,0.1,0.3,0.2,0.4,0.1C84.9,51.6,85,51.4,84.9,51.3z"/>
		<path class="st7" d="M52,84.9c-0.6-0.1-1.2-0.2-1.8-0.2c-0.2,0-0.3,0.2-0.3,0.3c0,0.2,0.1,0.3,0.3,0.3c0.6,0.1,1.2,0.2,1.8,0.2
			c0.2,0,0.3-0.2,0.3-0.3C52.3,85.1,52.2,85,52,84.9z"/>
		<path class="st7" d="M55.8,80.8c0-0.2-0.1-0.3-0.3-0.3c-0.2,0-0.3,0.1-0.3,0.3l0.3,2.7c0,0.2,0.1,0.3,0.3,0.3
			c0.2,0,0.3-0.1,0.3-0.3L55.8,80.8z"/>
		<path class="st7" d="M65.4,60.1c-0.7-0.2-1.5-0.5-2.2-0.7c-0.2-0.1-0.3,0.1-0.4,0.2c0,0.2,0.1,0.3,0.2,0.4
			c0.7,0.2,1.5,0.5,2.2,0.7c0.2,0.1,0.3-0.1,0.4-0.2C65.7,60.4,65.6,60.2,65.4,60.1z"/>
		<path class="st7" d="M61.3,84.7c-0.2-0.6-0.3-1.2-0.5-1.8c0-0.2-0.2-0.3-0.4-0.2c-0.2,0.1-0.3,0.2-0.2,0.4
			c0.2,0.6,0.3,1.2,0.5,1.8c0,0.2,0.2,0.3,0.4,0.2C61.3,85.1,61.4,84.9,61.3,84.7z"/>
		<path class="st7" d="M74.6,41.4c-0.2-0.1-0.3,0-0.4,0.1l-1.1,1.7c-0.1,0.1,0,0.4,0.1,0.4c0.2,0.1,0.3,0,0.4-0.1l1.1-1.7
			C74.8,41.7,74.8,41.5,74.6,41.4z"/>
		<path class="st7" d="M73,61.4l-1.7-2.2c-0.1-0.1-0.3-0.1-0.5,0c-0.1,0.1-0.1,0.3,0,0.4c0.6,0.7,1.1,1.5,1.7,2.2
			c0.1,0.1,0.3,0.1,0.5,0C73.1,61.7,73.1,61.6,73,61.4z"/>
		<path class="st7" d="M72.3,64.2c-0.2-0.1-0.3,0-0.4,0.1c-0.6,0.9-1.2,1.8-1.8,2.7c-0.1,0.1,0,0.4,0.1,0.4c0.2,0.1,0.3,0,0.4-0.1
			c0.6-0.9,1.2-1.8,1.8-2.7C72.5,64.5,72.4,64.3,72.3,64.2z"/>
		<path class="st7" d="M76.1,70.2c-0.5-0.7-0.9-1.4-1.4-2.1c-0.1-0.1-0.3-0.2-0.4-0.1c-0.1,0.1-0.2,0.3-0.1,0.4
			c0.5,0.7,0.9,1.4,1.4,2.1c0.1,0.1,0.3,0.2,0.4,0.1C76.2,70.5,76.2,70.3,76.1,70.2z"/>
		<path class="st7" d="M72.4,71.8c-0.1-0.1-0.4,0-0.4,0.1c-0.3,0.6-0.6,1.1-0.9,1.7c-0.1,0.1,0,0.4,0.1,0.4c0.1,0.1,0.4,0,0.4-0.1
			c0.3-0.6,0.6-1.1,0.9-1.7C72.6,72,72.5,71.8,72.4,71.8z"/>
		<path class="st7" d="M70.6,78.2c-0.6-0.6-1.1-1.2-1.7-1.8c-0.1-0.1-0.3-0.1-0.5,0c-0.1,0.1-0.1,0.3,0,0.4c0.6,0.6,1.1,1.2,1.7,1.8
			c0.1,0.1,0.3,0.1,0.5,0C70.7,78.5,70.7,78.3,70.6,78.2z"/>
		<path class="st7" d="M76.5,77.1c-0.1-0.2-0.3-0.2-0.4-0.1c-0.7,0.3-1.5,0.7-2.2,1c-0.2,0.1-0.2,0.3-0.1,0.4
			c0.1,0.2,0.3,0.2,0.4,0.1c0.7-0.3,1.5-0.7,2.2-1C76.6,77.5,76.6,77.3,76.5,77.1z"/>
		<path class="st7" d="M68.2,87.7c-0.7-0.5-1.3-0.9-2-1.4c-0.1-0.1-0.4,0-0.4,0.1c-0.1,0.2,0,0.3,0.1,0.4c0.7,0.5,1.3,0.9,2,1.4
			c0.1,0.1,0.4,0,0.4-0.1C68.4,88,68.4,87.8,68.2,87.7z"/>
		<path class="st7" d="M72.2,88.6c-0.1-0.1-0.4,0-0.4,0.1c-0.3,0.6-0.6,1.2-0.9,1.8c-0.1,0.1,0,0.4,0.1,0.4c0.1,0.1,0.4,0,0.4-0.1
			c0.3-0.6,0.6-1.2,0.9-1.8C72.4,88.9,72.4,88.7,72.2,88.6z"/>
		<path class="st7" d="M67,93.6c-0.2-0.6-0.5-1.1-0.7-1.7c-0.1-0.2-0.2-0.3-0.4-0.2c-0.1,0-0.3,0.2-0.2,0.4c0.2,0.6,0.5,1.1,0.7,1.7
			c0.1,0.2,0.2,0.3,0.4,0.2C67,93.9,67.1,93.7,67,93.6z"/>
		<path class="st7" d="M70.9,98.1c-0.4-0.5-0.8-1.1-1.1-1.6c-0.1-0.1-0.3-0.2-0.4-0.1c-0.1,0.1-0.2,0.3-0.1,0.4
			c0.4,0.5,0.8,1.1,1.1,1.6c0.1,0.1,0.3,0.2,0.4,0.1C70.9,98.4,71,98.2,70.9,98.1z"/>
		<path class="st7" d="M74.6,94.5c-0.1-0.2-0.2-0.3-0.4-0.2c-0.7,0.2-1.3,0.4-2,0.6c-0.2,0-0.3,0.2-0.2,0.4c0.1,0.2,0.2,0.3,0.4,0.2
			c0.7-0.2,1.3-0.4,2-0.6C74.5,94.9,74.6,94.7,74.6,94.5z"/>
		<path class="st7" d="M68.9,80.7c-0.2-0.1-0.3,0-0.4,0.1l-1.1,1.7c-0.1,0.1,0,0.4,0.1,0.4c0.2,0.1,0.3,0,0.4-0.1l1.1-1.7
			C69.1,81,69.1,80.8,68.9,80.7z"/>
		<path class="st7" d="M72.8,102.2c-0.1-0.1-0.4,0-0.4,0.1c-0.4,0.8-0.8,1.7-1.2,2.5c-0.1,0.2,0,0.3,0.1,0.4c0.1,0.1,0.4,0,0.4-0.1
			c0.4-0.8,0.8-1.7,1.2-2.5C73,102.4,72.9,102.2,72.8,102.2z"/>
		<path class="st7" d="M67.3,100.7l-1.7-2.2c-0.1-0.1-0.3-0.1-0.5,0c-0.1,0.1-0.1,0.3,0,0.4c0.6,0.7,1.1,1.5,1.7,2.2
			c0.1,0.1,0.3,0.1,0.5,0C67.4,101,67.4,100.9,67.3,100.7z"/>
		<path class="st7" d="M66.6,103.5c-0.2-0.1-0.3,0-0.4,0.1c-0.6,0.9-1.2,1.8-1.8,2.7c-0.1,0.1,0,0.4,0.1,0.4c0.2,0.1,0.3,0,0.4-0.1
			c0.6-0.9,1.2-1.8,1.8-2.7C66.8,103.8,66.7,103.6,66.6,103.5z"/>
		<path class="st7" d="M76.2,79c-0.1-0.1-0.4,0-0.4,0.1c-0.3,0.6-0.6,1.1-0.9,1.7c-0.1,0.1,0,0.4,0.1,0.4c0.1,0.1,0.4,0,0.4-0.1
			c0.3-0.6,0.6-1.1,0.9-1.7C76.4,79.3,76.3,79.1,76.2,79z"/>
		<path class="st7" d="M74.4,85.4c-0.6-0.6-1.1-1.2-1.7-1.8c-0.1-0.1-0.3-0.1-0.5,0c-0.1,0.1-0.1,0.3,0,0.4c0.6,0.6,1.1,1.2,1.7,1.8
			c0.1,0.1,0.3,0.1,0.5,0C74.5,85.7,74.5,85.6,74.4,85.4z"/>
		<path class="st7" d="M73.9,106c-0.2,0-0.4,0.1-0.4,0.2c-0.2,0.7-0.3,1.4-0.5,2.1c0,0.2,0.1,0.4,0.2,0.4c0.2,0,0.4-0.1,0.4-0.2
			c0.2-0.7,0.3-1.4,0.5-2.1C74.1,106.2,74,106,73.9,106z"/>
		<path class="st7" d="M78,43.4c-0.2,0-0.4,0.1-0.4,0.2c-0.2,1-0.3,1.9-0.5,2.9c0,0.2,0.1,0.3,0.2,0.4c0.2,0,0.4-0.1,0.4-0.2
			c0.2-1,0.3-1.9,0.5-2.9C78.2,43.7,78.1,43.5,78,43.4z"/>
		<path class="st7" d="M83.4,54.5c-0.8-1.1-1.6-2.2-2.3-3.3c-0.1-0.1-0.3-0.2-0.4-0.1c-0.1,0.1-0.2,0.3-0.1,0.4
			c0.8,1.1,1.6,2.2,2.3,3.3c0.1,0.1,0.3,0.2,0.4,0.1C83.4,54.9,83.5,54.7,83.4,54.5z"/>
		<path class="st7" d="M68.5,62.1c-0.6,1-1.3,2.1-1.9,3.1c-0.2,0.3,0.3,0.7,0.6,0.3c0.6-1,1.3-2.1,1.9-3.1
			C69.3,62,68.7,61.7,68.5,62.1z"/>
		<path class="st7" d="M64.1,68.5c-0.7-0.9-1.5-1.8-2.2-2.7c-0.1-0.1-0.3-0.1-0.5,0c-0.1,0.1-0.1,0.3,0,0.4c0.7,0.9,1.5,1.8,2.2,2.7
			c0.1,0.1,0.3,0.1,0.5,0C64.2,68.8,64.2,68.7,64.1,68.5z"/>
		<path class="st7" d="M67.5,69.8c-0.1-0.1-0.4,0-0.4,0.1c-0.5,1-0.9,2.1-1.4,3.1c-0.1,0.2,0,0.3,0.1,0.4c0.1,0.1,0.4,0,0.4-0.1
			c0.5-1,0.9-2.1,1.4-3.1C67.7,70.1,67.7,69.9,67.5,69.8z"/>
		<path class="st7" d="M64.8,77.5c-0.5-1-1.1-1.9-1.6-2.9c-0.2-0.4-0.8,0-0.6,0.3c0.5,1,1.1,1.9,1.6,2.9
			C64.5,78.2,65,77.8,64.8,77.5z"/>
		<path class="st7" d="M61.5,79.3c-1.2-0.1-2.3-0.2-3.5-0.3c-0.2,0-0.3,0.2-0.3,0.3c0,0.2,0.1,0.3,0.3,0.3c1.2,0.1,2.3,0.2,3.5,0.3
			c0.2,0,0.3-0.2,0.3-0.3C61.8,79.4,61.7,79.3,61.5,79.3z"/>
		<path class="st7" d="M64.8,80.3c-0.2,0.9-0.5,1.8-0.7,2.7c-0.1,0.4,0.5,0.6,0.6,0.2c0.2-0.9,0.5-1.8,0.7-2.7
			C65.5,80,64.9,79.9,64.8,80.3z"/>
		<path class="st7" d="M61,98.7h-3.5c-0.4,0-0.4,0.6,0,0.6H61C61.4,99.3,61.4,98.7,61,98.7z"/>
		<path class="st7" d="M63.6,100.8c-0.1-0.1-0.3-0.1-0.5,0c-0.8,0.9-1.6,1.8-2.4,2.8c-0.1,0.1-0.1,0.3,0,0.4c0.1,0.1,0.3,0.1,0.5,0
			c0.8-0.9,1.6-1.8,2.4-2.8C63.7,101.1,63.7,100.9,63.6,100.8z"/>
		<path class="st7" d="M59,107c-0.2-1-0.3-2.1-0.5-3.1c0-0.2-0.2-0.3-0.4-0.2c-0.2,0-0.3,0.2-0.2,0.4c0.2,1,0.3,2.1,0.5,3.1
			c0,0.2,0.2,0.3,0.4,0.2C59,107.3,59.1,107.1,59,107z"/>
		<path class="st7" d="M61.8,110.2c-1.1,0.3-2.3,0.6-3.4,0.9c-0.4,0.1-0.2,0.7,0.2,0.6c1.1-0.3,2.3-0.6,3.4-0.9
			C62.3,110.7,62.2,110.1,61.8,110.2z"/>
		<path class="st7" d="M68.7,110.5l-2.9-1.4c-0.2-0.1-0.3,0-0.4,0.1c-0.1,0.1,0,0.4,0.1,0.4l2.9,1.4c0.2,0.1,0.3,0,0.4-0.1
			C68.9,110.8,68.9,110.6,68.7,110.5z"/>
		<path class="st7" d="M72,110.1v3.1c0,0.4,0.6,0.4,0.6,0v-3.1C72.7,109.7,72,109.7,72,110.1z"/>
		<path class="st7" d="M68.3,114.8c-1-0.3-2-0.7-2.9-1c-0.2-0.1-0.3,0.1-0.4,0.2c0,0.2,0.1,0.3,0.2,0.4c1,0.3,2,0.7,2.9,1
			c0.2,0.1,0.3-0.1,0.4-0.2C68.6,115,68.5,114.8,68.3,114.8z"/>
		<path class="st7" d="M61.7,113.3c-0.1-0.1-0.4,0-0.4,0.1c-0.5,1-0.9,1.9-1.4,2.9c-0.1,0.2,0,0.3,0.1,0.4c0.1,0.1,0.4,0,0.4-0.1
			c0.5-1,0.9-1.9,1.4-2.9C61.9,113.5,61.8,113.4,61.7,113.3z"/>
		<path class="st7" d="M57.3,117c-0.9-0.3-1.8-0.7-2.8-1c-0.2-0.1-0.3,0.1-0.4,0.2c0,0.2,0.1,0.3,0.2,0.4c0.9,0.3,1.8,0.7,2.8,1
			c0.2,0.1,0.3-0.1,0.4-0.2C57.5,117.2,57.4,117,57.3,117z"/>
		<path class="st7" d="M53,117.6c-0.1-0.1-0.3-0.2-0.4-0.1c-0.6,0.4-1.3,0.8-1.9,1.2c-0.1,0.1-0.2,0.3-0.1,0.4
			c0.1,0.1,0.3,0.2,0.4,0.1c0.6-0.4,1.3-0.8,1.9-1.2C53,118,53.1,117.8,53,117.6z"/>
	</g>
	<g>
		<path class="st8" d="M22.9,88l-4.6-5.6L12,87.5l3.6,4.5c0,0,2.8-5.3,6.3-4.3L22.9,88z"/>
		<g>
			<path class="st5" d="M53.9,22.8c0.7-0.2,2,0.3,2.6,0.6c0.4,0.2,0.7,0.5,1,0.8c1.8,1.9,2.2,5.2,1.2,7.4c-0.6,1.3-1.7,2.1-2.9,2.5
				c-1.5,0.5-3.3,0.2-4.7-0.9c-0.8-0.6-1.4-1.4-1.7-2.3c-0.3-0.7-0.4-1.5-0.3-2.3c0.1-2,0.8-3.7,2.1-5c0.2-0.2-0.5-1.9-0.6-2.3
				c-0.8-2.2-2.5-3.5-4.7-4.2c-3.3-1.1-7.4-0.4-10.5,1.2c-1.3,0.7-2.4,1.6-3.3,2.7c-0.4,0.5-0.8,1.2-1.3,1.6
				c-0.2-1.5,0.7-3.4,1.5-4.6c1.9-2.7,5.5-3.9,8.6-4.1c0.7,0,1.5,0,2.2,0c2.7,0.2,5.1,1,7.3,2.8C52.6,18.4,53.5,20.2,53.9,22.8z"/>
			<path class="st7" d="M56.1,25.6c-0.5-0.7-1.3-1.4-2.2-1.5c-0.5-0.1-1,0-1.4,0.2c-0.1,0-0.3,0-0.3,0.1c0,0.1-0.1,0.1-0.1,0.2
				c-0.1,0.1-0.2,0.2-0.2,0.3c0,0.1-0.1,0.1,0,0.2c-0.8,1.3-1.3,2.9-1.1,4.4c0.3,1.6,1.5,3.1,3.2,3.3c1.6,0.2,2.9-1,3.4-2.4
				C57.9,28.8,57.2,26.9,56.1,25.6z M56.7,30c-0.3,1.2-1.4,2.3-2.8,2.1c-1.4-0.1-2.4-1.4-2.7-2.8c-0.3-1.6,0.4-3,1.2-4.3
				c0.4-0.4,1-0.5,1.5-0.4c0.7,0.2,1.2,0.7,1.6,1.2C56.5,27,57.1,28.6,56.7,30z"/>
			<path class="st7" d="M54.6,22c-1.5,0.4-3,0.8-4.5,1.3c-0.4,0.1-0.2,0.7,0.2,0.6c1.5-0.4,3-0.8,4.5-1.3C55.2,22.5,55,21.9,54.6,22
				z"/>
			<path class="st7" d="M53.9,20.5c-1.3,0.5-2.6,0.9-4,1.4c-0.4,0.1-0.2,0.7,0.2,0.6c1.3-0.5,2.6-0.9,4-1.4
				C54.5,20.9,54.3,20.3,53.9,20.5z"/>
		</g>
		<path class="st5" d="M59.2,55.2c-0.1-6.3-0.8-12.6-2.2-18.8c-0.2-0.8-0.3-1.6-0.5-2.3c-0.1-0.4-0.7-0.2-0.6,0.2
			c1.4,6,2.3,12.1,2.6,18.2c0.3,6.1,0,12.3-0.9,18.4c-0.3,2.3-0.7,4.5-1.2,6.8c-0.1-4.2-2-8.2-4.3-11.6c-2.7-4.1-6-7.7-8.1-12.2
			c-1.2-2.4-1.9-5-1.9-7.7c0-0.4-0.6-0.4-0.6,0c0,4.7,2.2,9.1,4.9,12.9c2.8,4,6,7.8,8,12.3c1.1,2.5,1.7,5.2,1.4,7.9
			c0,0.2,0.1,0.3,0.2,0.3c0,0.1-0.1,0.2-0.1,0.3c-0.7,2.8-1.5,5.7-2.6,8.4c-2,4.9-5.3,9.6-10.3,11.9c-4.3,2-9.9,1.5-13.3-2.1
			c-0.4-0.4-0.7-0.9-1-1.3c-0.2-0.3-0.8,0-0.6,0.3c2.6,4.1,8,5.7,12.6,4.6c5.3-1.3,9.3-5.5,11.7-10.1c1.4-2.6,2.3-5.4,3.1-8.3
			c0.9-3,1.5-6.1,2.1-9.2C58.8,67.9,59.3,61.6,59.2,55.2z"/>
	</g>
	<g>
		<path class="st5" d="M67.7,227.7c0.1,0.5,0.2,1.5-0.2,1.9c-0.5,0.6-21.7,2.8-24.1,3.1c-1,0.2-2.8,0.7-3.8,0
			c-1.5-1,2.4-3.2,2.9-3.7c3.8-2.9,8.6-6.3,12.7-8.9c0,0,0,0,0.1,0c1.9-0.4,6.4-1,9.3-2.3c0.3,1.2,0.7,2.4,1,3.6
			C66.3,223.5,67.4,225.6,67.7,227.7z"/>
		<path class="st7" d="M67.2,228.2c-7.1,0.7-14.2,1.7-21.3,3c-2,0.4-4,0.7-6,1.1c-0.4,0.1-0.2,0.7,0.2,0.6c7-1.4,14.1-2.5,21.1-3.4
			c2-0.2,4-0.5,6-0.7C67.6,228.8,67.6,228.2,67.2,228.2z"/>
		<path class="st7" d="M46.1,229.6c-0.6-1-1.3-2-2.1-2.9c-0.1-0.1-0.3-0.1-0.5,0c-0.1,0.1-0.1,0.3,0,0.4c0.7,0.9,1.4,1.8,2,2.8
			C45.8,230.3,46.3,230,46.1,229.6z"/>
		<path class="st7" d="M48.8,227.6c-0.4-0.5-0.9-1-1.3-1.5c-0.1-0.1-0.2-0.2-0.3-0.4c-0.1-0.1-0.2-0.3-0.3-0.4
			c-0.1-0.1-0.3-0.1-0.5,0c-0.2,0.1-0.3,0.4-0.2,0.6c0.1,0.1,0.3,0.2,0.4,0.1c0,0,0,0,0,0c0.1,0.1,0.2,0.2,0.2,0.3
			c0.2,0.2,0.3,0.4,0.5,0.6c0.3,0.4,0.7,0.8,1,1.2c0.1,0.1,0.3,0.1,0.5,0C48.9,227.9,48.9,227.7,48.8,227.6z"/>
		<path class="st7" d="M51.5,226.3c-0.6-1.2-1.3-2.3-2.1-3.4c-0.1-0.1-0.3-0.2-0.4-0.1c-0.1,0.1-0.2,0.3-0.1,0.4
			c0.7,1.1,1.4,2.2,2.1,3.4C51.1,227,51.7,226.6,51.5,226.3z"/>
		<path class="st7" d="M56,222.1c-0.4-0.3-0.9-0.4-1.4-0.5c-0.6-0.1-1.2,0-1.8,0.1c-0.1,0-0.2,0-0.3,0.1c0-0.6-0.2-1.3-0.4-1.9
			c-0.3-0.6-0.7-1.9-1.6-1.5c-0.8,0.4-0.5,1.6-0.3,2.3c0.3,0.8,0.8,1.6,1.5,2.2c0.1,0.1,0.2,0.1,0.3,0.1c0.8,0.6,1.8,1.1,2.8,1.2
			c0.7,0.1,2.1,0.1,2.1-1C56.7,222.7,56.3,222.4,56,222.1z M50.9,221c-0.1-0.3-0.2-0.6-0.3-0.9c-0.1-0.3-0.2-0.7,0-1
			c0.2-0.3,0.5,0.2,0.6,0.4c0.2,0.3,0.3,0.6,0.4,1c0.2,0.6,0.3,1.1,0.2,1.7C51.4,221.8,51.1,221.4,50.9,221z M56.1,223.3
			c-0.1,0.2-0.5,0.2-0.8,0.2c-0.4,0-0.7,0-1.1-0.1c-0.7-0.2-1.3-0.5-1.8-0.9c0,0,0-0.1,0-0.1c0,0.1,0,0,0.1,0c0.1,0,0.2,0,0.2,0
			c0.2,0,0.4-0.1,0.7-0.1c0.4,0,0.8-0.1,1.2,0c0.3,0.1,0.7,0.2,0.9,0.3C55.7,222.7,56.2,223.1,56.1,223.3z"/>
	</g>
	<g>
		<path class="st5" d="M46.7,214.2c-1.7,3.4-3.9,6.6-6,9.8c-1.5,2.2-2.8,4.6-4.5,6.7c-0.7,0.8-1.7,2.2-2.9,2.2
			c-0.8,0-1.1-0.6-1.4-1.2c-0.7-1.7-0.9-3.8-1-5.6c-0.1-3.1,1.3-6.3,2.9-9c1.7-2.8,3.6-5.4,5.5-8.1l0.1-0.1
			C41.9,210.5,44.3,212.4,46.7,214.2z"/>
		<path class="st7" d="M39.2,221.9c-1.2,0-2.4,0.1-3.6,0.1c-0.3-0.7-0.6-1.3-0.9-2c-0.2-0.4-0.7,0-0.6,0.3c0.3,0.6,0.5,1.1,0.8,1.7
			c-0.6,0-1.2,0-1.8,0c-0.4,0-0.4,0.6,0,0.6c0.7,0,1.4,0,2.1,0c0.4,0.9,0.8,1.8,1.2,2.7c0.1,0.2,0.3,0.2,0.4,0.1
			c0.2-0.1,0.2-0.3,0.1-0.4c-0.3-0.8-0.7-1.6-1.1-2.4c1.1,0,2.2,0,3.3-0.1C39.6,222.5,39.6,221.9,39.2,221.9z"/>
		<path class="st7" d="M41.9,217.8c-1.2,0-2.4,0.1-3.6,0.1c-0.6-0.7-1.1-1.4-1.7-2.2c-0.2-0.3-0.8,0-0.6,0.3
			c0.5,0.6,0.9,1.3,1.4,1.9c-0.9,0-1.7,0.1-2.6,0.1c-0.4,0-0.4,0.6,0,0.6c1,0,2-0.1,3.1-0.1c0.6,0.7,1.3,1.5,1.9,2.2
			c0.3,0.3,0.7-0.1,0.5-0.4c-0.5-0.6-1.1-1.1-1.6-1.7c1,0,2.1-0.1,3.1-0.1C42.3,218.4,42.3,217.8,41.9,217.8z"/>
		<path class="st7" d="M43.9,214.4c-0.9,0-1.8,0-2.7-0.1c-0.8-0.8-1.6-1.7-2.3-2.6c-0.3-0.3-0.7,0.1-0.5,0.4
			c0.6,0.7,1.2,1.4,1.9,2.1c-1,0-2,0-3-0.1c-0.4-0.1-0.6,0.5-0.2,0.6c1.1,0.2,2.2,0.1,3.3,0.2c0.1,0,0.3,0,0.4,0
			c0.5,0.6,1,1.1,1.5,1.6c0.3,0.3,0.7-0.1,0.5-0.4c-0.4-0.4-0.7-0.8-1.1-1.2c0.7,0,1.4,0,2.1,0C44.3,215,44.3,214.4,43.9,214.4z"/>
		<path class="st7" d="M47.2,210.8c-0.8-0.6-2.2-0.5-3.1-0.2c-0.7,0.2-1.3,0.6-1.8,1.1c-0.1-0.6-0.3-1.2-0.7-1.7
			c-0.4-0.5-1.4-1.5-2.1-0.9c-0.7,0.6-0.5,1.8,0,2.5c0.5,0.8,1.4,1.3,2.3,1.5c0.2,0.1,0.4-0.1,0.4-0.3c1.3,0.2,2.6,0.4,3.9,0.1
			c0.5-0.1,1.2-0.3,1.5-0.8C47.8,211.6,47.7,211.1,47.2,210.8z M39.8,210.6c-0.1-0.3-0.1-0.8,0.1-1c0.4-0.4,1.3,0.7,1.5,1
			c0.3,0.5,0.4,1.1,0.4,1.7c0,0,0,0,0,0.1c-0.5-0.2-1.1-0.5-1.4-0.9C40,211.2,39.8,210.9,39.8,210.6z M46.7,212
			c-0.4,0.2-1,0.3-1.4,0.4c-0.9,0.1-1.8,0-2.7-0.2c1-1,2.5-1.5,3.8-1.1c0.2,0,0.4,0.1,0.6,0.2C47.2,211.6,46.9,211.9,46.7,212z"/>
		<path class="st7" d="M37.8,228.2c-1.2,1.3-3.9,4.2-5.5,1.8c-0.7-1-0.7-2.3-0.7-3.4c-0.1-1.3,0-2.6,0.2-3.9
			c0.1-0.4-0.6-0.6-0.6-0.2c-0.2,1.5-0.3,3-0.2,4.6c0.1,1.2,0.2,2.6,1.1,3.6c2,2.3,4.8-0.5,6.3-2.1
			C38.5,228.4,38.1,227.9,37.8,228.2z"/>
	</g>
	<g>
		<path class="st9" d="M53,36c-1.4,3.3-3.6,6.3-6.4,8.5c-0.3,0.3,0.1,0.7,0.4,0.5c2.9-2.3,5.1-5.3,6.5-8.7
			C53.7,35.9,53.1,35.6,53,36z"/>
		<path class="st9" d="M41,37.3c-0.4,0.1-0.7,0.2-1.1,0.3c-0.4,0.1-0.8,0.2-1.1,0.2c-0.2,0-0.2-0.2-0.3-0.4
			c-0.1-0.2-0.1-0.4-0.2-0.5c-0.1-0.4-0.3-0.8-0.4-1.1c-0.5-1.5-1-3-1.5-4.5c-0.1-0.4-0.7-0.2-0.6,0.2c0.5,1.8,1.1,3.5,1.8,5.2
			c0.2,0.4,0.3,0.8,0.5,1.2c0.1,0.3,0.3,0.6,0.7,0.6c0.4,0,0.8-0.1,1.2-0.2c0.5-0.1,0.9-0.2,1.3-0.4C41.6,37.8,41.4,37.2,41,37.3z"
			/>
		<path class="st0" d="M33.5,30.8c-0.1,0.1-0.2,0.2-0.3,0.3c-0.1,0.1-0.3,0.1-0.5,0c-0.1-0.1-0.1-0.3,0-0.5c0.4-0.4,0.8-0.7,1.3-1
			c0.1,0,0.1-0.1,0.2,0c0.1,0,0.2,0.1,0.2,0.1c0,0.1,0.1,0.2,0,0.2c0,0.1-0.1,0.2-0.2,0.2c-0.2,0.1-0.5,0.2-0.7,0.4c0,0,0,0,0,0
			c0,0-0.1,0-0.1,0.1C33.6,30.7,33.6,30.8,33.5,30.8z"/>
		<path class="st0" d="M42.2,30.9c0.1,0.5-0.3,1.1-0.8,1.1c-0.5,0-1-0.4-1.2-0.8c-0.2-0.4-0.3-0.9-0.1-1.4c0-0.1,0.2-0.2,0.3-0.2
			c0.1-0.1,0.2-0.2,0.3-0.2c0.3-0.1,0.6,0,0.9,0.2c0.2,0.1,0.3,0.4,0.5,0.6C42.1,30.4,42.2,30.7,42.2,30.9z"/>
		<path class="st0" d="M35.1,31.3c0.4,0.4,0.4,0.9,0.4,1.4c0,0.2,0,0.4-0.2,0.6c-0.1,0.2-0.4,0.4-0.6,0.4c-0.6,0-0.9-0.6-1.1-1
			c-0.2-0.5-0.2-1,0-1.4c0.1-0.2,0.2-0.3,0.4-0.2c0,0,0.1,0,0.1,0c0.1,0,0.2-0.1,0.3-0.1C34.6,31,34.9,31.1,35.1,31.3z"/>
		<path class="st0" d="M42.4,29.3c-0.1,0.2-0.3,0.2-0.4,0.1c-0.8-0.4-1.8-0.4-2.6-0.1c-0.2,0.1-0.4-0.1-0.4-0.2
			c-0.1-0.2,0.1-0.3,0.2-0.4c1-0.4,2.1-0.3,3.1,0.1C42.5,28.9,42.5,29.1,42.4,29.3z"/>
		<path class="st10" d="M44.1,41.6c-0.3,0.7-0.8,1.4-1.5,1.7c-0.8,0.3-1.5,0.2-2.2-0.2c-0.3-0.2-0.6-0.5-0.9-0.7
			c-0.3-0.3-0.4-0.7-0.6-1.1c0,0,0-0.1,0-0.1c-0.1-0.2,0-0.4,0.2-0.4c1.6-0.6,3.2-1.2,4.8-1.8c0.1,0,0.1,0,0.2,0
			c0.2-0.1,0.4-0.1,0.4,0.2C44.7,39.9,44.5,40.8,44.1,41.6z"/>
		<path class="st1" d="M49.5,36.7c-0.6,1.1-2,1.6-3.3,1.4c-1.3-0.2-2.1-1.3-2.2-2.5c0-1.2,0.6-2.2,1.5-3c0.3-0.2,0.6-0.3,0.9-0.2
			c0.9-0.2,1.9,0.1,2.6,0.9C49.8,34.2,50.1,35.6,49.5,36.7z"/>
	</g>
</g>
</svg>
